<?xml version="1.0" standalone="no"?>
<!DOCTYPE svg PUBLIC "-//W3C//DTD SVG 20010904//EN"
 "http://www.w3.org/TR/2001/REC-SVG-20010904/DTD/svg10.dtd">
<svg version="1.0" xmlns="http://www.w3.org/2000/svg"
 width="893.000000pt" height="715.000000pt" viewBox="0 0 893.000000 715.000000"
 preserveAspectRatio="xMidYMid meet">
<metadata>
Created by potrace 1.16, written by Peter Selinger 2001-2019
</metadata>
<g transform="translate(0.000000,715.000000) scale(0.100000,-0.100000)"
fill="#000000" stroke="none">
<path d="M2152 5867 c-12 -27 -29 -79 -36 -117 -10 -52 -21 -77 -45 -106 -23
-26 -29 -39 -21 -44 9 -6 6 -12 -11 -21 -18 -10 -71 -14 -199 -15 -193 -1
-203 -3 -259 -63 l-33 -36 5 -100 c15 -254 60 -548 108 -704 26 -85 29 -91 75
-186 42 -86 141 -197 224 -253 105 -70 126 -129 116 -323 -8 -154 1 -197 55
-264 118 -149 115 -143 144 -270 15 -66 36 -149 46 -185 10 -36 25 -92 34
-125 9 -33 20 -130 25 -215 6 -100 16 -182 29 -230 35 -127 36 -189 7 -330
-67 -322 -1 -485 267 -664 62 -42 135 -96 162 -121 28 -25 86 -70 130 -99 79
-53 111 -70 229 -117 32 -13 79 -43 103 -66 44 -39 46 -43 40 -83 -3 -23 -17
-59 -32 -80 -24 -34 -141 -156 -177 -185 -7 -6 -26 -20 -42 -33 l-29 -22 51 0
c41 0 53 4 62 20 6 11 17 20 25 20 7 0 17 9 20 20 3 11 10 20 14 20 13 0 51
36 51 49 0 6 6 11 14 11 8 0 23 14 33 30 9 16 21 30 25 30 4 0 8 7 8 15 0 8 4
15 9 15 8 0 24 37 22 53 -1 4 4 7 10 7 6 0 9 7 6 15 -4 8 -2 17 4 20 5 4 7 11
4 16 -4 5 1 9 9 9 9 0 16 7 16 15 0 19 28 31 65 28 146 -12 195 -12 202 0 16
27 149 46 325 48 83 0 126 4 122 11 -4 6 1 6 13 -1 14 -7 23 -7 31 1 9 9 12 9
12 0 0 -7 7 -12 15 -12 17 0 19 9 6 44 -12 30 5 48 36 40 11 -3 24 -1 27 5 4
6 12 11 19 11 6 0 1 -7 -11 -16 -12 -8 -22 -21 -22 -27 1 -7 17 6 37 28 22 24
37 35 40 28 3 -10 8 -9 20 2 8 8 20 12 26 8 7 -4 4 -10 -9 -15 -17 -8 -17 -8
3 -4 12 2 28 -3 37 -13 13 -14 12 -17 -10 -28 -20 -9 -24 -9 -24 5 0 15 -2 15
-10 2 -15 -23 -12 -30 10 -30 11 0 20 5 20 11 0 6 7 3 16 -6 13 -12 14 -19 5
-28 -6 -6 -11 -7 -11 -1 0 8 -32 11 -62 5 -4 0 -1 -13 7 -28 8 -15 12 -30 9
-35 -3 -4 -1 -8 5 -8 6 0 8 12 5 28 -5 22 -2 29 11 29 10 0 15 -6 12 -17 -2
-9 1 -23 7 -31 13 -17 56 -21 56 -6 0 6 6 2 14 -8 8 -11 12 -23 10 -27 -2 -4
0 -9 6 -13 5 -3 10 3 10 14 0 31 25 25 28 -6 3 -33 12 -44 12 -14 0 18 3 20
19 11 26 -13 31 -13 25 3 -3 8 2 19 10 26 12 10 16 8 21 -9 5 -17 10 -19 18
-11 9 9 8 14 -2 20 -10 6 -12 20 -8 42 3 19 3 28 0 21 -2 -6 -8 -10 -13 -7 -4
3 -6 -4 -3 -15 3 -11 0 -20 -6 -20 -6 0 -10 3 -10 8 4 23 -4 30 -28 27 -22 -2
-24 0 -13 9 8 6 15 19 16 29 3 63 3 62 18 42 13 -18 14 -18 9 8 -3 16 -10 24
-17 20 -6 -4 -5 1 3 10 11 14 11 17 0 17 -12 0 -12 2 0 9 8 5 10 14 6 21 -5 8
-4 11 2 7 6 -4 15 17 22 49 11 47 16 55 34 52 15 -2 23 4 28 22 4 14 7 18 8 9
1 -9 9 -23 18 -30 11 -10 14 -10 9 -1 -4 7 -2 12 6 13 7 0 23 2 35 5 15 2 21
0 17 -9 -3 -8 2 -14 10 -14 8 0 13 4 11 8 -3 4 2 9 9 12 9 4 17 -1 19 -11 4
-16 5 -15 6 1 1 10 9 17 22 17 11 0 18 -4 14 -9 -3 -5 -1 -12 5 -16 5 -3 10
-1 10 6 0 8 4 8 15 -1 13 -11 15 -10 9 6 -5 15 -4 16 4 5 7 -9 7 -21 2 -31 -5
-9 -7 -30 -5 -46 2 -16 4 -37 4 -46 1 -22 31 -24 31 -2 0 8 -4 13 -9 10 -5 -3
-11 1 -15 9 -6 16 2 19 20 7 12 -8 26 -52 15 -50 -3 0 -15 0 -25 -1 -16 -1
-17 -4 -8 -13 10 -10 7 -15 -10 -25 l-23 -12 25 -1 c14 -1 19 -4 13 -7 -7 -2
-13 -14 -13 -24 0 -14 4 -18 13 -13 9 6 9 5 0 -8 -7 -8 -10 -18 -6 -21 9 -9
24 -9 20 1 -1 4 3 8 8 10 6 1 10 -6 10 -15 -1 -10 -6 -17 -13 -16 -7 2 -12 -2
-12 -8 0 -6 9 -9 19 -6 13 3 18 0 16 -12 -2 -9 -4 -21 -4 -28 -1 -6 -11 -9
-23 -6 l-23 5 24 -22 c17 -14 26 -17 31 -10 4 7 10 11 14 11 5 -1 8 4 5 12 -1
1 -2 15 -3 30 -4 39 13 45 21 7 7 -35 23 -23 23 18 0 15 4 21 12 16 6 -4 3 4
-8 18 -10 14 -22 21 -25 16 -3 -5 -9 -2 -13 7 -3 10 -12 15 -21 11 -11 -4 -15
2 -15 24 0 17 -5 30 -11 30 -6 0 -3 7 5 16 9 8 13 20 10 25 -3 6 -3 22 0 35 6
21 9 24 22 13 21 -17 30 -3 10 16 -9 9 -16 24 -15 33 0 13 3 11 9 -5 5 -13 16
-20 27 -18 10 2 21 4 26 4 4 1 7 5 7 10 0 5 -10 7 -22 3 -14 -3 -19 -2 -14 6
4 7 14 12 22 12 8 0 14 8 13 18 0 10 -3 12 -6 4 -8 -21 -20 -13 -20 13 0 14 3
25 8 25 5 0 9 -5 9 -11 0 -5 4 -8 8 -5 5 3 7 19 6 35 -1 17 2 34 7 37 14 8 11
21 -6 28 -10 3 -14 -1 -13 -12 3 -45 -2 -62 -23 -62 -11 0 -17 -4 -14 -10 3
-5 1 -10 -5 -10 -7 0 -10 6 -7 14 3 7 0 19 -6 25 -8 8 -7 11 5 11 9 0 19 -6
21 -12 4 -8 6 -7 6 3 1 9 -6 19 -14 23 -8 3 -15 10 -15 16 0 6 5 8 10 5 6 -3
11 -1 11 4 5 40 2 46 -18 49 -18 3 -23 10 -23 34 0 27 -2 29 -16 17 -13 -10
-17 -10 -25 2 -5 8 -9 22 -9 33 0 13 -5 17 -18 14 -23 -6 -48 12 -46 32 2 29
4 31 24 20 16 -9 20 -8 20 5 0 13 4 14 20 5 15 -8 20 -8 20 2 0 19 30 34 68
33 20 0 32 5 32 13 0 8 5 10 13 6 7 -4 8 -3 4 2 -12 13 -71 14 -79 0 -6 -8 -8
-7 -8 2 0 10 -9 12 -32 6 -18 -4 -46 -6 -62 -6 -16 0 -38 -4 -48 -9 -10 -5
-18 -7 -18 -4 0 11 28 34 34 28 3 -3 11 -1 18 4 7 6 20 11 28 12 8 0 29 2 45
3 18 2 29 8 28 16 -2 6 2 12 7 12 6 0 10 -7 10 -15 0 -8 6 -12 15 -9 8 3 13
11 12 16 -1 6 4 13 11 15 7 3 12 -4 12 -16 0 -12 5 -21 11 -21 7 0 8 7 4 17
-4 12 5 7 24 -11 17 -16 28 -33 25 -38 -6 -9 46 -32 54 -23 3 3 0 5 -7 5 -7 0
-9 5 -5 12 4 6 3 8 -4 4 -6 -3 -13 -2 -17 4 -3 5 -2 10 2 10 5 0 8 16 8 35 -2
36 12 97 34 149 6 16 10 34 8 39 -2 6 3 18 10 26 7 9 28 33 45 55 43 51 95 83
151 91 26 4 47 11 47 16 0 5 -6 6 -14 3 -8 -3 -17 -1 -20 5 -4 6 -14 8 -24 5
-15 -5 -15 -4 1 6 9 6 25 9 35 6 9 -3 24 -1 32 5 12 9 12 10 -3 5 -11 -3 -25
1 -34 10 -9 8 -21 13 -29 10 -7 -3 -14 -1 -16 4 -2 5 -18 10 -35 12 -18 1 -33
6 -33 10 0 10 -50 -1 -68 -15 -7 -5 -15 -7 -19 -4 -11 12 42 47 80 53 21 4 46
14 55 23 15 15 15 15 9 -1 -9 -24 8 -23 34 3 17 17 23 18 32 9 9 -10 9 -11 0
-6 -7 4 -13 2 -13 -3 0 -16 16 -13 30 4 7 9 21 13 31 10 11 -4 19 -2 19 4 0 6
7 11 15 11 8 0 15 -7 15 -15 0 -8 4 -15 8 -15 5 0 7 13 4 30 -3 23 0 30 12 30
9 0 16 -7 16 -16 0 -9 -5 -12 -12 -8 -8 4 -10 3 -5 -2 5 -5 13 -10 18 -10 5
-1 14 -2 19 -3 6 0 10 -6 10 -12 0 -5 -6 -7 -12 -4 -7 4 -4 -1 7 -10 17 -14
18 -17 5 -25 -9 -6 -10 -10 -3 -10 7 0 17 10 24 21 7 15 8 19 0 15 -7 -5 -10
3 -7 23 2 17 0 28 -5 26 -4 -3 -15 3 -25 12 -16 16 -15 18 12 25 17 5 33 3 43
-5 10 -8 13 -8 8 0 -5 7 6 14 33 18 22 4 40 11 40 16 0 5 -3 8 -7 8 -20 -3
-34 2 -28 11 4 6 -7 8 -27 4 -41 -6 -76 -6 -108 2 -14 3 -33 6 -42 6 -10 -1
-18 4 -18 9 0 6 -4 7 -10 4 -5 -3 -26 -1 -46 4 -29 8 -43 7 -66 -5 -28 -15
-29 -15 -18 5 6 11 19 25 31 31 11 6 17 16 13 21 -4 7 1 7 14 0 26 -14 35 -14
27 -1 -9 14 9 12 23 -2 10 -10 15 -10 22 2 5 8 10 10 10 4 0 -16 114 -16 144
0 14 7 23 16 19 20 -4 4 0 4 10 0 10 -3 17 -1 17 5 0 6 8 11 18 12 10 0 12 3
5 6 -20 7 -15 23 5 17 10 -4 13 -3 6 3 -6 4 -11 16 -11 25 0 14 3 15 14 6 11
-8 12 -7 7 6 -4 10 -1 16 7 16 28 0 -2 12 -38 15 -46 4 -75 -3 -67 -16 3 -5
10 -7 15 -4 5 4 9 -1 9 -9 0 -25 -13 -19 -37 18 l-22 34 46 7 c28 4 49 3 56
-4 6 -6 16 -11 21 -11 6 0 5 5 -1 11 -6 6 -9 18 -6 25 3 8 0 14 -7 14 -6 0 -8
-4 -5 -10 6 -9 -34 -15 -77 -12 -10 1 -24 -7 -30 -18 -7 -11 -18 -20 -25 -20
-6 0 -14 -6 -17 -12 -3 -7 -4 -4 -3 7 2 15 -6 21 -33 26 -40 7 -39 9 14 14 21
2 41 7 44 10 10 10 11 35 1 29 -5 -3 -7 -9 -5 -13 3 -4 -1 -8 -9 -8 -8 0 -16
6 -19 13 -3 8 0 11 10 7 7 -3 14 0 14 6 0 6 8 11 18 12 15 0 14 2 -3 10 -16 7
-12 8 15 5 19 -3 29 -2 22 1 -6 2 -9 10 -6 15 4 7 2 8 -4 4 -7 -4 -12 -1 -12
9 0 9 -4 13 -10 10 -5 -3 -10 -1 -10 4 0 6 5 11 11 11 8 0 8 5 -1 15 -7 8 -10
21 -7 28 3 8 -3 20 -13 27 -14 10 -16 18 -9 32 7 13 6 18 -2 16 -8 -2 -14 10
-15 27 -2 16 -8 31 -14 33 -14 5 -13 32 3 32 8 0 8 3 2 8 -20 13 -16 59 5 65
10 3 20 1 22 -3 2 -4 10 -1 18 8 13 14 12 15 -4 9 -14 -6 -17 -4 -12 10 5 16
5 16 -8 0 -14 -18 -15 -17 -19 5 -4 23 -4 23 -6 1 0 -13 -5 -23 -11 -23 -5 0
-10 -9 -10 -19 0 -24 -19 -31 -45 -18 -19 9 -19 9 -3 -9 16 -19 16 -20 -2 -32
-11 -7 -20 -8 -20 -3 0 5 -8 8 -17 6 -10 -2 -24 -4 -31 -4 -7 -1 -11 -5 -8
-10 3 -5 14 -7 25 -4 11 3 21 -2 24 -11 4 -9 1 -16 -5 -16 -7 0 -7 -5 2 -15
11 -13 50 -85 50 -92 0 -2 -7 -3 -15 -3 -8 0 -15 -6 -15 -12 0 -9 -3 -8 -9 2
-6 8 -7 18 -4 24 3 5 1 6 -5 2 -6 -3 -13 -2 -17 4 -3 5 1 10 11 10 24 0 0 26
-32 34 -14 4 -22 11 -19 15 3 5 -3 8 -12 7 -10 -2 -18 -8 -18 -14 0 -6 -4 -14
-9 -19 -5 -5 -6 -3 -2 5 5 8 -1 12 -18 12 -20 0 -24 -4 -20 -17 5 -14 4 -15
-4 -4 -12 16 -47 7 -36 -10 4 -7 -1 -7 -17 1 -19 10 -24 10 -34 -4 -7 -8 -14
-14 -17 -11 -2 3 -22 -4 -44 -15 -21 -10 -36 -19 -32 -20 10 0 -52 -60 -63
-60 -6 0 -7 -5 -4 -10 3 -5 -1 -10 -9 -10 -9 0 -16 -5 -16 -11 0 -5 -4 -7 -10
-4 -5 3 -10 -3 -10 -14 0 -11 -4 -23 -10 -26 -5 -3 -10 -15 -10 -26 0 -11 -4
-18 -9 -14 -5 3 -12 1 -16 -5 -4 -6 -11 -8 -16 -4 -5 3 -6 10 -3 16 4 7 2 8
-5 4 -9 -6 -9 -11 0 -22 6 -7 9 -21 5 -30 -8 -21 -27 -8 -19 14 3 9 -4 4 -16
-11 -13 -16 -20 -34 -17 -43 5 -12 2 -15 -9 -10 -9 3 -13 2 -10 -4 3 -6 -1
-20 -9 -32 -15 -21 -16 -21 -23 -2 -4 10 -7 38 -6 62 0 40 -10 56 -20 30 -4
-9 -6 -10 -6 -1 -1 6 6 19 15 27 14 15 11 20 -9 17 -5 -1 -5 4 0 11 4 7 9 23
11 36 2 20 0 22 -18 12 -21 -11 -27 -30 -9 -30 5 0 7 -5 4 -11 -5 -6 -12 -4
-21 8 -19 25 -17 32 9 42 13 5 24 16 24 25 0 21 -13 21 -21 0 -4 -10 -14 -14
-26 -11 -11 3 -23 1 -26 -4 -3 -5 -2 -8 3 -7 10 4 13 -5 13 -38 0 -14 -4 -23
-10 -19 -13 8 -13 -1 1 -27 10 -18 9 -20 -5 -15 -17 7 -22 -8 -6 -18 6 -3 10
-11 10 -16 0 -6 -4 -7 -10 -4 -17 10 -11 -17 8 -38 9 -11 11 -17 5 -13 -16 9
-40 -4 -25 -13 6 -3 11 -24 13 -46 1 -22 7 -45 12 -52 5 -7 6 -21 2 -33 -4
-11 -2 -20 4 -20 6 0 11 5 11 12 0 6 3 8 7 5 3 -4 -2 -16 -11 -26 -18 -19 -14
-47 5 -36 5 4 9 4 9 1 0 -3 -10 -10 -22 -17 -18 -10 -20 -9 -15 5 3 8 1 21 -6
28 -17 18 -17 48 0 48 8 0 12 4 9 8 -6 10 -65 7 -74 -3 -4 -4 0 -6 8 -3 17 5
44 -18 36 -31 -3 -5 -15 -7 -26 -4 -15 4 -20 0 -20 -15 0 -11 -3 -22 -7 -25
-5 -2 -2 -2 5 -1 9 3 10 -1 2 -16 -5 -10 -7 -25 -4 -33 3 -8 1 -18 -4 -21 -6
-3 -8 -15 -5 -26 4 -14 0 -20 -10 -20 -10 0 -13 -6 -10 -20 3 -11 1 -20 -5
-20 -6 0 -12 -12 -14 -27 -2 -16 -8 -27 -14 -26 -7 1 -9 -8 -6 -22 2 -15 0
-25 -7 -25 -14 0 -10 297 4 320 5 9 4 15 -3 18 -7 2 -9 9 -5 15 5 7 9 30 9 52
3 63 3 66 12 61 5 -3 9 1 9 9 0 15 -34 31 -44 21 -3 -3 -6 -21 -7 -41 0 -19
-4 -35 -8 -35 -4 0 -5 -7 -1 -16 3 -9 0 -20 -8 -25 -12 -8 -12 -11 1 -19 12
-8 13 -12 2 -19 -8 -4 -13 -21 -11 -37 1 -16 -3 -40 -8 -54 -6 -14 -9 -29 -6
-33 3 -4 -1 -15 -8 -23 -6 -8 -9 -17 -6 -21 3 -3 0 -18 -9 -34 -8 -16 -11 -29
-8 -29 4 0 -1 -9 -10 -19 -12 -13 -16 -27 -11 -43 5 -18 4 -20 -4 -8 -7 10
-11 11 -11 3 0 -19 -51 -127 -64 -135 -8 -6 -7 -8 2 -8 10 0 10 -4 0 -20 -17
-27 -26 -25 -40 8 -7 15 -13 28 -14 30 -1 2 -12 -1 -23 -8 -12 -6 -21 -7 -21
-2 0 5 -14 12 -31 16 -17 3 -28 10 -25 15 3 5 -5 12 -19 15 -14 4 -25 11 -25
16 0 6 -7 10 -15 10 -18 0 -20 -16 -2 -23 7 -3 5 -6 -5 -6 -11 -1 -18 6 -18
18 0 10 -7 21 -15 25 -18 7 -20 -15 -2 -33 8 -10 8 -12 0 -7 -6 3 -14 2 -17
-3 -4 -5 2 -12 11 -14 17 -4 17 -5 1 -6 -11 -1 -18 -9 -18 -22 0 -12 -4 -17
-11 -14 -6 4 -8 13 -5 21 3 8 1 14 -4 14 -6 0 -10 5 -10 11 0 5 5 7 10 4 9 -6
13 4 13 40 0 36 -4 45 -18 45 -18 0 -20 16 -2 23 6 3 3 6 -9 6 -11 1 -29 8
-40 17 -10 8 -13 13 -6 9 6 -3 12 -1 12 4 0 6 -4 11 -9 11 -5 0 -11 12 -13 27
-2 14 -9 28 -16 29 -7 1 -8 0 -3 -2 5 -3 -7 -21 -27 -40 -20 -19 -31 -34 -24
-34 7 0 12 -5 12 -11 0 -6 -6 -9 -13 -6 -8 3 -14 -4 -15 -19 -1 -18 2 -22 16
-17 9 3 14 2 9 -2 -6 -7 -17 -10 -60 -14 -5 -1 -1 -8 8 -17 15 -15 14 -18 -5
-37 -18 -16 -19 -21 -8 -28 19 -12 30 -11 22 3 -4 7 -3 8 4 4 7 -4 12 -2 12 5
0 7 3 10 6 7 3 -4 0 -17 -7 -30 -12 -23 -12 -23 9 -5 24 22 50 14 31 -9 -9
-11 -8 -14 5 -14 9 0 16 5 16 12 0 6 9 1 20 -12 11 -13 20 -28 20 -34 0 -6 -5
-4 -10 4 -6 9 -10 10 -10 3 0 -17 21 -27 52 -25 25 2 27 0 24 -28 -2 -17 1
-33 7 -37 6 -3 7 -1 3 5 -4 7 -3 12 3 12 5 0 13 -4 16 -10 3 -5 16 -10 28 -10
16 0 18 3 8 9 -8 5 -9 11 -3 15 6 3 8 25 5 49 -3 29 -2 38 5 28 6 -8 8 -20 5
-27 -3 -8 6 -18 21 -24 14 -5 26 -14 26 -20 0 -5 6 -10 14 -10 8 0 22 -7 30
-16 9 -8 20 -12 26 -9 5 3 10 1 10 -5 0 -6 8 -10 18 -9 30 3 43 -1 37 -10 -3
-5 -1 -12 5 -16 5 -3 10 1 10 9 0 17 34 39 44 29 3 -3 6 -1 6 6 0 7 5 9 10 6
6 -3 10 1 10 9 0 9 6 16 13 16 7 0 18 14 24 31 16 42 37 28 28 -18 -6 -36 -45
-87 -79 -105 -36 -20 -107 -17 -129 5 -19 19 -19 19 -12 -2 5 -16 3 -20 -9
-15 -9 3 -14 16 -13 27 1 14 -3 21 -12 19 -9 -2 -12 4 -8 18 3 11 2 18 -3 15
-11 -7 -20 -45 -10 -45 5 0 5 -13 0 -30 -5 -16 -8 -30 -7 -31 1 0 12 -2 25 -5
17 -3 21 -1 16 8 -6 10 -5 10 7 2 8 -7 23 -14 34 -17 13 -3 9 -5 -12 -6 -18 0
-32 -4 -32 -8 3 -20 -2 -26 -11 -13 -8 12 -10 10 -11 -10 0 -23 -1 -23 -9 -5
-8 18 -9 18 -9 -5 -1 -16 -4 -21 -11 -14 -6 6 -6 21 -1 41 5 16 6 34 2 39 -9
13 -48 11 -62 -3 -9 -9 -7 -11 10 -6 12 3 21 1 21 -6 0 -6 -9 -11 -21 -11 -12
0 -19 -5 -16 -12 5 -16 -20 -68 -33 -68 -4 0 -15 -13 -24 -30 -14 -29 -14 -30
9 -30 25 0 39 -12 28 -24 -3 -3 -12 -1 -19 5 -8 7 -25 8 -41 4 -25 -6 -26 -8
-9 -14 19 -7 19 -8 -2 -13 -12 -4 -22 -11 -22 -18 0 -6 6 -8 13 -4 8 5 9 4 2
-3 -5 -6 -25 -13 -44 -17 l-35 -6 25 26 24 26 -25 -6 c-24 -6 -24 -6 -3 5 15
8 21 20 21 40 -1 22 -4 26 -14 18 -10 -8 -12 4 -13 54 0 60 -3 67 -37 101 -38
38 -57 46 -48 21 4 -9 0 -15 -10 -15 -9 0 -16 -8 -16 -17 0 -13 -3 -14 -12 -5
-7 7 -31 12 -54 12 -44 0 -125 35 -163 71 -12 11 -21 17 -21 13 0 -4 -9 1 -19
10 -12 11 -21 14 -26 7 -9 -15 -22 -14 -22 3 0 10 13 14 49 13 26 -1 48 -1 48
0 0 13 -36 31 -55 27 -20 -3 -25 0 -25 16 0 22 5 21 -165 24 -44 1 -85 -2 -92
-7 -7 -5 -17 -6 -22 -3 -5 4 -12 2 -16 -4 -3 -5 -15 -10 -27 -10 -14 0 -18 -5
-14 -15 3 -8 -2 -18 -10 -23 -8 -5 -15 -17 -15 -28 0 -64 4 -93 12 -88 5 3 9
-10 8 -28 0 -20 -3 -27 -7 -18 -9 19 -61 27 -58 8 3 -22 17 -39 27 -33 5 4 9
2 9 -3 0 -6 -7 -13 -16 -16 -8 -3 -12 -2 -9 4 3 6 -1 10 -9 10 -9 0 -26 9 -38
20 -13 12 -30 27 -39 35 -9 8 -23 15 -32 15 -15 0 -22 11 -18 33 0 4 -6 7 -15
7 -8 0 -12 -5 -9 -10 3 -6 0 -10 -7 -10 -9 0 -9 -3 2 -10 12 -8 12 -10 -5 -11
l-20 0 20 -9 c19 -8 14 -11 -17 -14 -7 -1 -13 8 -13 19 0 15 -6 19 -23 18 -14
-2 -33 7 -48 22 -23 23 -52 26 -38 4 3 -5 9 -7 14 -4 4 3 10 -2 14 -10 3 -8 0
-17 -6 -21 -7 -4 -8 -3 -4 4 4 7 1 12 -6 13 -7 0 -20 2 -28 3 -8 2 -24 -5 -35
-16 -18 -18 -18 -19 -1 -12 18 7 18 6 1 -20 -10 -14 -25 -31 -34 -37 -13 -9
-12 -10 6 -6 14 3 24 -1 28 -11 3 -9 3 -13 -1 -10 -10 10 -44 -10 -44 -26 0
-14 -29 -30 -38 -21 -3 3 -5 18 -5 35 0 16 -3 27 -7 25 -3 -2 -6 4 -7 13 -4
46 -10 57 -33 64 -20 5 -19 6 10 5 30 -2 35 1 36 22 1 21 13 35 38 44 17 6
-39 53 -58 49 -19 -4 -19 -5 2 -16 20 -11 19 -12 -18 -13 l-40 -2 17 23 c10
13 21 22 26 19 4 -2 7 0 7 6 0 7 10 6 30 0 16 -6 28 -15 25 -19 -10 -16 20
-17 38 -2 11 10 17 11 17 4 0 -7 4 -12 10 -12 5 0 7 7 4 15 -4 10 -15 13 -34
10 -29 -5 -60 17 -40 30 5 3 14 4 18 1 4 -2 14 -1 22 4 11 7 8 9 -10 8 -14 -1
-33 -8 -42 -16 -9 -8 -21 -11 -27 -8 -6 4 -21 -4 -33 -16 -13 -13 -27 -23 -33
-23 -5 0 -9 -9 -7 -20 2 -17 1 -17 -7 -5 -10 13 -15 7 -12 -12 0 -5 -4 -8 -10
-8 -6 0 -9 6 -6 14 3 8 3 17 -1 19 -4 2 -2 3 3 2 16 -4 37 23 24 31 -6 3 -16
0 -21 -7 -8 -11 -9 -10 -4 3 3 10 1 20 -4 23 -6 4 -10 11 -10 18 0 6 7 2 15
-9 8 -10 15 -15 15 -10 0 6 6 2 13 -9 9 -11 16 -14 20 -8 4 6 0 16 -8 23 -8 7
-15 17 -15 23 0 5 9 0 20 -13 18 -21 22 -22 38 -8 9 9 24 13 32 11 10 -4 8 0
-3 9 -18 13 -18 15 -1 29 13 11 18 11 21 2 3 -9 10 -10 22 -3 10 5 21 6 25 3
3 -3 6 -2 6 4 0 6 -12 11 -27 12 -54 1 -63 2 -69 13 -4 7 -2 8 4 4 8 -5 12 1
13 16 1 18 2 19 6 5 3 -13 10 -16 21 -11 10 4 27 7 40 7 12 1 22 4 22 8 0 4 7
15 17 24 14 14 14 18 2 27 -11 7 -9 8 6 4 11 -3 27 -1 35 4 13 9 13 11 0 21
-13 9 -12 10 3 5 9 -3 17 -1 17 4 0 6 9 10 20 10 11 0 20 4 20 9 0 6 8 10 18
10 9 1 36 2 60 3 44 1 60 18 18 18 -32 0 -57 10 -51 21 3 4 13 6 23 3 10 -4
13 -3 6 3 -6 4 -13 14 -15 22 -4 11 -9 10 -24 -5 -18 -19 -18 -19 -13 4 5 17
2 22 -10 20 -9 -2 -17 2 -17 7 0 6 -4 16 -9 24 -8 12 -11 11 -17 -5 -7 -18 -8
-18 -8 2 -1 30 -12 36 -27 16 -12 -16 -13 -15 -14 7 0 16 -4 21 -15 17 -8 -3
-21 4 -30 17 -8 12 -15 16 -15 8 0 -9 -4 -10 -12 -4 -7 6 -52 22 -100 37 -49
15 -88 31 -88 36 0 6 -6 10 -13 10 -14 0 -43 40 -39 54 2 5 -2 12 -8 16 -6 4
-12 30 -13 58 -1 37 -6 52 -16 52 -11 0 -10 4 3 19 16 17 16 19 0 25 -13 5
-14 10 -6 18 8 8 8 17 1 31 -8 15 -8 18 1 12 9 -6 10 -3 3 10 -13 22 -5 57 11
48 6 -3 6 0 -1 8 -7 7 -13 19 -13 27 0 9 7 6 20 -9 11 -14 20 -19 21 -11 1 6
2 17 3 24 0 6 9 12 18 14 27 4 98 37 98 46 0 4 8 8 18 8 10 0 24 6 31 13 11
10 13 9 8 -6 -4 -11 -3 -16 3 -12 6 3 10 3 10 0 0 -11 -28 -35 -40 -35 -7 0
-9 -8 -5 -20 6 -18 -2 -25 -26 -22 -4 1 -15 -9 -25 -21 -15 -17 -15 -19 -2 -8
9 7 22 10 28 6 5 -3 10 -1 10 6 0 7 8 5 20 -6 11 -10 20 -13 20 -7 0 7 8 12
18 12 11 0 13 -3 5 -8 -24 -15 4 -27 64 -27 35 0 63 2 63 5 0 3 19 6 42 6 23
1 44 6 46 12 2 6 10 8 18 5 7 -3 16 1 19 8 3 8 17 15 32 16 15 0 32 8 39 17
11 15 12 15 19 -1 6 -15 10 -13 21 14 13 32 15 32 32 15 10 -9 14 -20 9 -23
-5 -4 -6 -12 -3 -18 10 -15 -7 -14 -23 2 -8 6 -11 7 -8 2 3 -6 2 -17 -4 -25
-6 -10 -9 -11 -9 -2 0 6 -5 12 -11 12 -7 0 -9 -9 -6 -21 3 -13 1 -19 -6 -16
-7 2 -18 -3 -25 -10 -11 -10 -18 -11 -28 -2 -10 8 -12 7 -10 -8 2 -10 -5 -27
-16 -38 -12 -12 -18 -14 -16 -6 2 7 -3 16 -10 18 -9 4 -13 -1 -10 -13 2 -12
12 -19 26 -18 15 0 21 -4 18 -13 -3 -7 -1 -13 4 -13 6 0 10 5 10 10 0 6 7 10
16 10 8 0 12 -4 9 -10 -3 -5 1 -10 9 -10 9 0 16 5 16 10 0 6 7 10 16 10 9 0
14 -6 11 -13 -3 -8 4 -14 16 -15 17 -1 19 1 7 8 -13 8 -13 10 2 10 9 0 23 -7
32 -15 8 -8 23 -15 33 -14 16 0 16 1 -2 9 -11 5 -14 9 -7 9 7 1 21 -4 31 -10
11 -8 29 -9 47 -4 16 5 35 7 42 6 8 -1 20 3 28 10 10 8 14 8 14 0 0 -7 7 -7
26 1 20 9 30 9 45 0 15 -10 19 -10 17 0 -2 7 6 14 17 14 11 1 25 3 30 4 6 1
13 2 17 1 4 0 5 6 2 13 -3 9 -12 12 -22 9 -11 -5 -14 -2 -10 8 6 15 -31 38
-69 43 -9 2 -20 11 -24 22 -7 17 -8 17 -8 2 -1 -27 -36 -22 -51 7 -7 13 -18
22 -23 18 -6 -4 -8 2 -4 16 4 17 2 21 -9 17 -13 -5 -19 12 -15 37 1 5 -3 6 -9
2 -5 -3 -10 -2 -10 4 0 6 -7 8 -17 4 -13 -5 -15 -2 -11 15 4 12 0 23 -7 26 -8
3 -11 13 -8 25 5 21 -2 25 -39 22 -10 -1 -18 3 -18 8 0 10 14 15 33 12 4 0 7
4 7 9 0 9 -26 7 -67 -5 -17 -5 -24 7 -12 21 6 8 6 14 0 18 -5 4 -12 -3 -16
-14 -9 -29 -26 -14 -19 17 6 23 4 25 -15 20 -14 -3 -21 -1 -21 8 0 7 -6 16
-12 18 -10 4 -10 6 0 6 21 2 13 19 -10 23 -13 2 -22 9 -20 17 2 8 -3 11 -13 8
-8 -4 -15 -2 -15 3 0 6 4 10 9 10 5 0 12 7 15 16 5 14 4 15 -9 4 -10 -9 -15
-9 -16 -1 -1 6 -2 17 -3 24 0 6 -11 16 -23 22 -12 5 -24 17 -27 27 -2 10 -8
18 -13 17 -4 -1 -25 1 -45 5 -48 10 -51 36 -5 37 l32 1 -30 8 c-30 8 -30 8 8
9 20 0 37 5 37 10 0 5 9 7 20 4 11 -3 20 -1 20 4 0 6 11 9 25 8 14 -2 25 1 25
6 0 5 9 9 19 9 11 0 21 5 23 11 2 6 15 12 30 12 14 1 24 7 21 13 -2 6 5 14 16
17 14 3 19 11 16 26 -2 14 2 24 11 28 10 3 14 13 11 25 -3 12 2 23 14 31 29
18 24 22 -36 23 -40 0 -54 -3 -51 -12 6 -16 -29 -85 -39 -76 -4 4 -4 -3 -1
-15 6 -18 4 -22 -8 -17 -8 3 -21 2 -28 -2 -19 -12 -61 -14 -73 -4 -6 5 -17 5
-25 0 -12 -8 -12 -10 -1 -10 7 0 11 -6 8 -13 -4 -10 6 -13 39 -12 24 1 44 -1
44 -5 0 -16 -82 -29 -182 -29 -58 0 -118 -3 -132 -7 -41 -10 -146 -10 -146 0
0 5 -2 7 -6 4 -3 -3 -20 -2 -39 2 -32 7 -34 6 -31 -14 3 -11 5 -27 5 -34 1 -7
5 -10 11 -7 6 3 10 2 10 -2 0 -5 8 -9 18 -10 9 -1 31 -4 47 -6 17 -3 59 -6 95
-6 47 -1 61 -4 53 -12 -17 -17 -245 -8 -251 10 -2 7 -13 21 -23 29 -11 9 -19
24 -19 34 0 10 -6 18 -14 18 -9 0 -12 7 -9 20 4 14 0 20 -11 20 -9 0 -16 7
-16 15 0 9 -7 18 -15 21 -18 7 -20 26 -2 23 15 -3 47 11 47 20 0 3 -19 7 -43
7 -29 2 -36 0 -22 -6 19 -7 19 -8 2 -15 -25 -10 -34 2 -19 25 14 24 15 33 3
25 -5 -3 -13 0 -16 6 -4 5 -14 8 -22 5 -8 -3 -11 -1 -8 4 3 6 2 10 -3 10 -6 0
-8 10 -4 22 4 17 2 20 -11 15 -9 -3 -18 0 -21 9 -3 7 -2 13 2 13 21 -3 23 3 6
23 -10 12 -14 18 -8 15 16 -9 25 65 10 75 -7 5 -7 8 2 8 8 0 10 5 5 13 -4 6
-8 32 -9 57 -1 25 -5 97 -9 160 -8 127 1 167 69 315 18 39 33 74 33 79 1 5 5
12 10 15 5 3 28 40 52 81 58 104 64 114 79 123 6 4 12 14 12 21 0 8 7 19 16
26 27 23 64 95 73 145 9 46 8 48 -26 81 -19 18 -37 33 -41 31 -27 -8 -79 72
-59 92 8 8 8 11 0 11 -6 0 -9 9 -6 20 5 20 6 20 23 3 10 -10 16 -20 14 -22 -2
-2 1 -12 7 -23 10 -18 12 -18 34 -4 21 14 24 14 19 1 -4 -8 -1 -15 5 -15 6 0
11 6 11 13 0 8 4 7 10 -3 6 -10 10 -11 10 -2 0 6 6 12 14 12 8 0 16 6 19 14 3
7 15 16 26 19 12 3 19 1 15 -4 -3 -5 0 -9 5 -9 18 0 12 28 -6 32 -11 3 -4 6
15 9 22 4 29 2 22 -5 -5 -5 -10 -14 -10 -19 0 -5 9 2 21 17 11 14 25 23 31 20
6 -4 8 -2 5 3 -4 6 -1 16 7 22 11 9 15 9 19 -1 3 -8 6 -6 6 5 1 10 6 15 12 12
6 -4 22 3 35 16 17 16 23 18 19 7 -5 -13 -2 -15 14 -11 12 3 21 8 21 12 0 4
17 8 38 8 20 1 49 3 65 6 19 3 27 0 27 -10 0 -8 5 -11 10 -8 6 4 17 1 25 -5
12 -10 15 -10 15 0 0 8 3 10 6 7 4 -4 2 -13 -5 -21 -9 -11 -9 -15 1 -19 9 -4
9 -6 1 -6 -6 -1 -19 6 -27 15 -12 12 -26 14 -56 9 -22 -4 -42 -11 -45 -15 -3
-5 -12 -7 -20 -3 -8 3 -15 1 -15 -4 0 -10 -77 -38 -92 -35 -5 1 -8 -3 -8 -8 0
-6 -10 -10 -22 -10 -12 0 -18 -3 -15 -7 9 -9 -43 -63 -60 -63 -17 0 -12 -23 7
-32 11 -5 10 -7 -6 -7 -11 -1 -21 -7 -21 -13 -1 -7 -5 -49 -9 -93 -10 -87 -10
-208 -2 -240 3 -11 17 -49 31 -85 26 -69 33 -89 36 -105 1 -5 9 -20 17 -32 8
-13 12 -23 8 -23 -4 0 -1 -7 6 -15 16 -20 70 -46 81 -39 5 3 9 0 9 -6 0 -6 4
-9 9 -6 5 3 14 0 20 -7 12 -15 10 -15 -44 -20 -26 -2 -30 -6 -28 -29 1 -15 -1
-27 -5 -27 -4 1 -16 1 -27 0 -18 -1 -19 -2 -3 -12 12 -7 24 -6 38 1 15 8 20 8
20 -2 1 -8 7 -5 15 6 8 11 15 14 15 8 0 -9 5 -10 19 -2 25 13 31 13 31 0 0 -5
-7 -10 -15 -10 -8 0 -15 -3 -16 -7 -8 -70 -7 -83 2 -83 6 0 9 -9 6 -20 -3 -11
-1 -18 4 -14 8 5 13 -10 10 -30 -1 -4 7 -16 18 -26 12 -9 18 -20 14 -24 -3 -3
1 -6 10 -6 10 0 17 -7 17 -15 0 -8 4 -15 10 -15 5 0 22 -12 38 -27 15 -16 39
-34 53 -41 67 -36 100 -94 58 -105 -10 -3 -19 -1 -19 4 0 4 -7 6 -15 3 -8 -4
-15 -14 -15 -23 0 -14 2 -14 10 -1 8 12 10 11 10 -7 0 -13 5 -23 11 -23 6 0 9
7 6 14 -4 11 -1 13 10 9 11 -4 14 -2 9 5 -4 7 -2 12 4 12 7 0 9 -8 5 -20 -8
-25 2 -26 28 -2 11 9 17 12 14 5 -10 -17 11 -27 27 -13 8 6 16 7 18 1 1 -5 19
-11 38 -14 19 -2 53 -12 75 -21 102 -41 439 -70 557 -48 128 24 215 91 273
209 26 52 44 70 71 71 3 1 12 9 21 19 10 13 16 15 19 6 8 -18 21 -16 28 3 5
13 1 15 -24 12 -16 -3 -30 -4 -30 -3 0 1 8 11 18 23 13 15 22 18 29 11 7 -7
17 -2 31 16 11 14 23 26 26 26 3 -1 14 6 24 15 9 8 26 23 37 32 12 9 15 13 8
8 -16 -10 -17 -1 -2 26 8 15 8 19 0 14 -6 -4 -11 -2 -11 3 0 17 -28 13 -32 -4
-2 -9 -8 -12 -16 -6 -11 6 -11 13 -1 35 11 22 10 32 -1 49 -12 20 -12 21 3 8
10 -7 17 -19 17 -26 0 -6 6 -12 14 -12 8 0 14 9 13 19 -1 10 -6 18 -12 18 -5
0 -3 5 5 10 13 9 13 10 0 11 -8 1 -17 1 -20 1 -3 0 -11 6 -18 14 -11 12 -9 14
8 14 11 0 20 -5 20 -10 0 -6 5 -9 12 -8 6 2 14 -6 16 -17 7 -34 22 -41 23 -12
3 57 4 66 12 73 4 4 7 -4 7 -19 0 -14 5 -29 12 -33 8 -5 9 -2 5 9 -5 13 -1 17
15 17 21 0 21 0 2 15 -18 14 -18 14 4 8 13 -3 22 -1 22 6 0 11 -18 15 -52 12
-20 -2 -32 15 -17 25 8 4 9 3 5 -4 -9 -14 3 -15 24 -2 9 6 20 5 29 -3 12 -9
13 -9 7 1 -4 7 -2 12 4 12 6 0 10 8 8 18 -2 11 3 27 11 36 13 15 13 19 1 26
-8 5 -11 12 -7 16 3 4 13 1 22 -6 12 -10 15 -10 15 4 0 9 5 16 11 16 5 0 7 -5
3 -11 -4 -7 1 -7 16 1 12 6 24 9 28 6 3 -3 0 -6 -6 -6 -7 0 -12 -5 -12 -10 0
-7 7 -7 21 1 12 6 36 13 53 16 39 6 42 9 26 28 -10 12 -9 15 6 16 104 4 146
24 49 24 l-74 0 4 -27 c5 -27 -4 -36 -19 -20 -4 4 -17 8 -29 9 -12 1 -53 5
-92 8 -38 4 -78 7 -88 6 -9 0 -15 4 -13 8 6 10 107 8 123 -2 6 -4 15 -3 18 3
5 8 12 7 23 -2 12 -11 16 -11 20 0 3 10 7 10 18 1 8 -7 18 -9 21 -5 13 12 -19
24 -56 21 -20 -1 -40 0 -45 3 -5 3 -37 6 -70 7 -34 1 -72 4 -86 8 -14 3 -38 8
-54 12 -42 9 -26 16 41 19 66 3 94 13 72 27 -10 6 -6 9 12 9 27 0 46 24 29 35
-6 4 -10 1 -10 -5 0 -25 -16 1 -18 29 -2 28 11 43 20 23 2 -4 71 -22 153 -40
143 -31 161 -33 345 -31 107 0 221 5 254 10 32 5 83 11 113 13 31 2 59 9 63
16 6 10 9 9 13 -1 4 -10 6 -11 6 -1 1 8 9 10 26 6 17 -4 25 -2 25 6 0 10 3 10
15 0 12 -10 59 -11 213 -6 108 5 220 7 247 5 133 -7 558 3 644 16 45 7 51 14
12 13 -37 -1 -56 11 -20 13 98 5 167 -10 213 -46 21 -16 21 -17 -9 -33 -19
-11 -19 -11 3 -12 12 0 22 -4 22 -10 0 -5 7 -10 15 -10 8 0 19 -9 25 -20 6
-11 15 -18 19 -15 7 4 22 -29 20 -44 0 -2 11 -11 26 -21 19 -12 23 -19 13 -23
-13 -5 -4 -16 27 -32 6 -3 5 -7 -2 -11 -10 -4 -10 -9 1 -20 8 -8 19 -14 25
-14 6 0 8 -7 5 -15 -4 -10 -2 -13 7 -10 25 9 46 -85 42 -183 -4 -101 -6 -123
-17 -140 -4 -6 -4 -17 -1 -22 4 -6 1 -18 -6 -26 -6 -8 -10 -17 -7 -20 3 -2 -1
-33 -9 -67 -8 -34 -17 -73 -20 -87 -3 -14 -12 -33 -21 -42 -8 -10 -11 -18 -6
-18 5 0 -2 -7 -14 -16 -12 -8 -20 -20 -17 -25 4 -5 -1 -10 -9 -10 -29 -3 -34
-4 -41 -11 -3 -3 7 -9 24 -13 25 -5 35 -1 60 24 43 44 66 101 103 248 40 161
45 329 14 428 -47 147 -146 269 -266 328 -63 31 -68 32 -195 31 -89 0 -166 -7
-245 -22 -97 -18 -301 -31 -335 -22 -22 6 -31 8 -58 9 -15 1 -36 12 -49 26
-12 14 -27 25 -33 25 -6 0 -21 11 -33 25 -12 14 -27 25 -33 25 -6 0 -25 11
-43 25 -18 14 -40 25 -49 25 -8 0 -25 14 -37 30 -17 24 -29 30 -58 30 -26 0
-54 12 -97 40 -33 22 -69 40 -80 40 -32 0 -110 27 -157 53 -24 13 -61 27 -83
30 -22 4 -68 18 -102 32 -35 14 -74 25 -88 25 -14 0 -44 12 -68 27 -23 14 -57
28 -75 29 -19 2 -42 6 -53 9 -12 4 -19 2 -19 -7 0 -7 -7 -2 -16 10 -18 26 -36
29 -28 5 5 -15 3 -15 -10 1 -9 11 -16 23 -16 28 0 4 -8 8 -17 8 -13 0 -14 -3
-5 -12 7 -7 12 -17 12 -23 -1 -5 -10 1 -20 14 -12 14 -26 21 -35 17 -9 -3 -18
1 -21 9 -8 20 -54 20 -54 0 0 -12 -6 -14 -27 -8 -16 4 -43 7 -60 7 -18 1 -33
4 -33 9 0 16 -32 6 -37 -12 -3 -13 -12 -18 -28 -16 -15 1 -22 -2 -19 -10 5
-13 -41 -30 -56 -20 -5 3 -11 1 -15 -5 -4 -6 -11 -8 -16 -4 -5 3 -16 0 -24 -6
-8 -7 -15 -9 -15 -6 0 4 -10 1 -22 -6 -13 -7 -31 -11 -41 -9 -10 1 -25 -3 -33
-10 -8 -6 -17 -9 -21 -5 -4 3 2 13 13 20 19 15 19 15 0 12 -11 -2 -22 -8 -24
-14 -2 -7 -11 -12 -19 -12 -8 0 -13 6 -10 13 3 8 -3 14 -14 14 -11 1 -17 -2
-14 -8 4 -5 1 -9 -4 -9 -6 0 -11 7 -11 15 0 8 -6 15 -12 16 -7 1 -29 2 -48 4
-19 2 -37 4 -40 5 -3 1 -8 2 -12 1 -5 0 -8 4 -8 10 0 5 -4 7 -10 4 -5 -3 -10
-1 -10 4 0 6 -3 11 -7 10 -20 -3 -53 15 -53 28 0 9 5 11 13 7 8 -5 7 -2 -2 10
-18 22 -53 17 -66 -10 -9 -18 -12 -19 -24 -7 -11 12 -15 13 -22 1 -6 -10 -9
-10 -9 0 0 9 -25 12 -94 12 -130 0 -152 6 -202 56 -28 28 -49 42 -59 38 -18
-7 -19 -16 -4 -31 19 -19 20 -63 1 -63 -12 0 -13 3 -4 12 16 16 15 33 0 20 -9
-6 -75 -8 -188 -5 -96 4 -204 6 -240 7 -36 0 -68 5 -72 11 -5 6 -8 3 -8 -7 0
-18 -33 -42 -43 -32 -3 3 -14 1 -24 -5 -10 -6 -12 -11 -5 -11 6 0 12 -4 12 -9
0 -10 -38 -24 -59 -21 -11 1 -10 -2 3 -15 19 -19 21 -29 4 -19 -7 5 -24 8 -38
8 -14 1 -24 6 -23 12 1 6 -3 11 -10 11 -26 1 -135 37 -187 62 -50 24 -76 51
-49 51 6 0 3 7 -5 16 -9 8 -16 22 -16 30 0 8 -4 14 -10 14 -5 0 -10 7 -10 15
0 8 -6 15 -12 15 -10 0 -10 2 0 9 18 11 17 22 -3 33 -15 9 -15 12 0 34 14 22
14 24 -2 24 -15 1 -14 4 6 21 13 11 21 22 17 26 -3 4 -18 -4 -33 -18 -15 -13
-21 -16 -13 -6 12 16 12 20 -1 29 -10 7 -11 11 -2 14 16 7 5 34 -14 34 -8 0
-11 -4 -8 -10 3 -5 2 -10 -3 -10 -6 0 -12 7 -16 15 -3 8 -1 15 5 15 6 0 1 9
-12 19 -13 10 -31 18 -40 16 -10 -2 -15 4 -15 18 1 17 -5 22 -23 22 -13 0 -26
7 -28 15 -4 13 -3 13 6 0 11 -17 16 -14 25 18 6 18 3 22 -13 22 -11 0 -21 8
-23 18 -2 11 -11 1 -26 -31z m35 -114 c2 -45 13 -126 20 -148 9 -25 10 -31 12
-51 0 -8 6 -12 11 -9 6 3 10 -5 10 -18 0 -14 7 -27 15 -31 8 -3 15 -15 15 -26
0 -12 5 -18 10 -15 6 3 10 0 10 -7 0 -9 3 -9 10 2 7 12 10 8 11 -15 0 -16 3
-24 6 -17 5 13 23 7 23 -8 0 -5 -10 -6 -22 -4 -13 3 -29 6 -36 6 -12 1 -44 30
-67 60 -10 12 -39 78 -40 88 0 3 -3 10 -6 15 -4 6 -5 18 -4 28 2 9 0 17 -4 17
-4 0 -5 16 -3 35 2 19 8 35 13 35 5 0 9 7 9 15 0 8 -4 15 -8 15 -5 0 -9 7 -9
15 0 8 4 15 8 15 5 0 6 7 3 15 -4 8 -2 15 3 15 5 0 9 -12 10 -27z m-148 -246
c37 -12 59 -27 92 -61 10 -11 31 -28 46 -38 46 -30 2 -20 -52 12 -27 16 -58
30 -67 30 -10 0 -18 4 -18 8 0 5 -46 10 -102 11 -150 4 -206 12 -238 34 -20
14 -12 15 91 16 62 1 115 3 117 6 7 7 95 -5 131 -18z m-13 -127 c29 -6 54 -15
54 -20 0 -4 11 -11 24 -14 36 -9 68 -59 63 -96 -5 -31 -28 -60 -46 -60 -6 0
-11 -4 -11 -10 0 -5 -3 -9 -7 -8 -5 1 -20 -4 -35 -10 -44 -18 -130 -41 -168
-46 -29 -3 -34 -7 -32 -25 3 -16 -1 -20 -15 -15 -14 5 -15 4 -4 -4 8 -6 21 -8
29 -4 9 3 13 1 9 -5 -9 -15 14 -31 37 -27 11 1 29 14 41 28 15 17 25 22 35 16
9 -5 17 -5 20 1 7 11 35 18 95 25 22 3 47 8 55 11 8 3 23 7 33 8 11 1 22 7 26
14 4 6 15 9 24 5 12 -4 17 -1 17 12 0 16 2 17 10 4 8 -12 10 -8 11 15 l1 30
10 -32 c6 -18 7 -40 3 -50 -11 -23 -15 -75 -7 -88 3 -5 7 -23 9 -39 2 -17 8
-35 13 -40 6 -6 10 -19 10 -31 0 -12 6 -27 13 -34 10 -11 9 -13 -4 -8 -21 7
-20 -29 1 -44 13 -9 12 -10 -2 -5 -11 3 -18 0 -18 -7 0 -8 -4 -6 -10 3 -6 9
-10 10 -10 3 0 -6 -8 -14 -17 -17 -10 -2 -4 -5 12 -4 46 0 48 -1 31 -18 -9 -8
-16 -22 -16 -30 0 -23 -1 -28 -13 -49 -6 -11 -11 -23 -12 -27 0 -4 -6 -13 -12
-19 -7 -7 -13 -21 -13 -31 0 -10 -7 -18 -15 -18 -8 0 -15 -9 -15 -20 0 -11 -5
-20 -11 -20 -14 0 -39 -26 -39 -40 0 -7 -7 -10 -15 -6 -8 3 -15 1 -15 -4 0 -6
-6 -9 -12 -7 -7 1 -12 -5 -10 -13 3 -11 -3 -9 -20 6 -13 12 -29 19 -37 16 -8
-2 -11 0 -7 6 3 6 -1 17 -9 25 -8 9 -15 25 -15 36 0 14 -5 19 -16 14 -8 -3
-13 -11 -11 -17 3 -6 -6 -11 -19 -11 -13 0 -24 3 -24 8 0 4 -13 6 -30 5 -27
-2 -28 -4 -14 -19 13 -15 13 -17 -6 -22 -28 -7 -25 -24 8 -32 27 -7 27 -7 5
-16 -33 -12 -28 -29 10 -30 29 -1 30 -2 7 -8 l-24 -7 22 -22 c12 -12 22 -24
22 -27 0 -2 18 -23 40 -47 56 -61 52 -76 -12 -42 -52 28 -65 37 -121 88 -15
14 -32 26 -37 26 -6 0 -10 4 -10 9 0 5 -6 16 -13 23 -22 23 -47 67 -47 83 0 8
-4 15 -10 15 -5 0 -10 8 -10 18 0 10 -4 22 -9 28 -5 5 -22 65 -37 134 -24 113
-27 144 -27 320 1 212 3 241 16 233 4 -3 11 4 14 15 6 24 19 31 98 51 80 21
154 25 221 11z m2364 -75 c-6 -8 -8 -20 -4 -26 4 -7 3 -9 -2 -6 -6 3 -16 1
-24 -4 -12 -7 -12 -11 -2 -17 7 -5 10 -16 7 -24 -4 -9 -2 -19 4 -23 6 -3 11
-2 11 4 0 6 7 8 15 5 18 -7 47 14 39 27 -3 5 0 9 5 9 6 0 11 -5 11 -11 0 -5 5
-7 12 -3 7 4 8 3 4 -5 -4 -6 -11 -9 -16 -6 -5 3 -11 1 -14 -4 -3 -5 3 -11 14
-14 11 -3 20 -1 20 3 0 10 26 7 36 -3 4 -4 18 0 31 9 24 15 24 15 12 -8 -12
-22 -11 -22 6 -8 10 8 16 10 13 5 -4 -6 2 -16 13 -23 11 -7 19 -8 19 -2 0 6 9
6 24 0 13 -5 26 -6 29 -3 3 3 3 -4 0 -16 -3 -13 -1 -21 7 -21 9 0 9 -4 -1 -17
-10 -11 -10 -14 -1 -9 6 4 12 3 12 -3 0 -5 -6 -12 -12 -14 -10 -4 -10 -6 0 -6
7 -1 16 7 19 16 8 22 40 53 47 46 3 -3 -3 -17 -12 -31 -12 -18 -13 -27 -5 -29
7 -3 9 -11 6 -20 -4 -11 -2 -14 5 -9 14 8 16 33 3 38 -4 2 0 12 10 22 19 19
19 19 19 -2 0 -14 6 -22 16 -22 12 0 14 3 6 13 -8 10 -6 13 8 13 10 0 16 -5
13 -10 -4 -5 1 -6 12 -2 18 7 18 6 0 -14 -10 -11 -13 -20 -8 -20 6 0 16 7 23
15 7 8 16 13 20 10 4 -3 28 -6 53 -6 35 -2 44 -5 39 -17 -4 -11 -1 -13 11 -6
9 5 46 7 83 4 36 -3 68 -2 71 3 2 4 12 2 21 -5 12 -11 16 -11 20 0 2 8 8 9 15
4 7 -5 38 -14 69 -21 68 -15 85 -31 31 -31 -21 0 -111 -5 -200 -12 -121 -9
-168 -9 -187 0 -17 8 -26 8 -28 0 -2 -6 -12 -3 -23 8 -18 19 -18 19 -13 -4 5
-19 3 -21 -18 -18 -15 3 -27 -1 -33 -11 -6 -12 -10 -6 -16 23 -6 32 -8 36 -17
20 -9 -17 -11 -17 -29 0 -10 9 -19 13 -19 8 0 -5 -8 0 -16 11 -15 20 -15 20
-30 1 -11 -16 -14 -17 -14 -4 0 9 -6 19 -12 21 -9 4 -9 8 -3 14 14 12 18 43 5
43 -6 0 -8 -6 -4 -12 6 -10 5 -10 -7 -1 -9 7 -31 15 -50 17 -34 4 -34 4 -34
-35 -1 -35 2 -39 25 -40 24 -1 24 -1 -5 -10 -44 -13 -72 -2 -71 27 1 13 8 29
15 36 11 10 12 10 7 1 -4 -7 -3 -13 2 -13 6 0 12 7 16 15 3 8 1 15 -4 15 -6 0
-10 5 -10 11 0 5 5 7 11 4 6 -4 5 2 -2 13 -15 24 -23 20 -24 -10 0 -12 -6 -23
-12 -25 -7 -3 -13 3 -13 13 0 16 -2 15 -16 -4 -18 -26 -36 -29 -27 -4 5 13 1
12 -16 -5 -25 -27 -36 -29 -27 -8 3 8 1 15 -3 15 -5 0 -12 -7 -15 -16 -5 -12
-10 -13 -19 -6 -7 6 -24 8 -37 5 -16 -4 -21 -3 -16 5 4 7 1 12 -8 12 -9 0 -16
5 -16 10 0 6 5 10 12 10 6 0 8 3 4 7 -4 5 -14 -1 -23 -12 -15 -20 -15 -20 -9
1 5 15 0 23 -21 31 l-28 11 27 1 c35 1 46 19 12 19 -14 0 -31 5 -37 12 -9 10
-9 11 1 6 8 -5 12 0 13 16 0 22 1 22 9 3 5 -11 9 -14 9 -7 1 6 10 12 22 12 11
0 18 4 14 9 -11 19 17 23 30 5 7 -11 17 -15 21 -11 5 4 2 12 -6 17 -11 7 -6
10 20 11 19 1 39 1 44 0 5 -1 15 7 23 19 8 11 17 20 20 20 3 0 0 -7 -7 -15z
m-1266 -52 c-4 -13 1 -19 18 -20 44 -4 253 -33 308 -43 59 -11 110 -30 110
-42 0 -5 9 -8 20 -8 11 0 20 -5 20 -11 0 -5 5 -7 10 -4 6 3 10 -1 10 -10 0 -9
3 -14 8 -12 14 9 52 -13 52 -30 0 -15 2 -16 10 -3 9 13 10 13 10 0 0 -13 1
-13 10 0 8 12 10 11 10 -7 0 -13 4 -23 9 -23 5 0 11 -10 14 -22 5 -18 8 -19
21 -8 14 11 16 9 16 -14 0 -16 7 -29 18 -33 9 -4 23 -13 30 -20 11 -11 11 -13
-2 -13 -9 0 -16 5 -16 12 0 12 -15 2 -15 -10 0 -4 -4 -14 -9 -22 -7 -12 -6
-13 5 -2 18 16 39 15 39 -2 0 -8 6 -17 13 -19 9 -4 8 -8 -3 -16 -21 -15 -35
-14 -21 2 13 17 2 30 -14 17 -8 -7 -18 -4 -30 10 -10 11 -22 20 -27 20 -5 0
-14 5 -21 10 -70 60 -74 62 -93 59 -4 0 -10 3 -13 9 -3 5 -27 21 -53 36 -34
20 -45 32 -41 43 4 10 2 14 -4 10 -6 -4 -19 -4 -28 -1 -13 5 -14 8 -3 15 10 7
9 9 -5 9 -10 0 -16 4 -13 8 3 4 -32 6 -77 5 -45 -2 -90 -4 -99 -4 -10 0 -18
-5 -18 -10 0 -6 -5 -7 -11 -4 -6 4 -8 13 -5 21 4 10 -2 14 -17 13 -12 0 -16
-3 -9 -6 24 -9 12 -25 -15 -19 -29 7 -61 11 -155 22 -32 4 -55 10 -53 14 3 4
-4 10 -15 13 -10 3 -21 0 -24 -7 -3 -6 -3 7 1 29 3 22 7 42 9 44 4 5 8 -28 5
-43 -1 -5 5 -6 14 -3 8 4 15 1 15 -5 0 -6 3 -8 7 -4 4 4 8 15 8 23 0 9 8 17
18 19 20 3 23 -12 5 -19 -7 -3 -3 -6 9 -6 12 -1 24 -7 27 -13 4 -9 5 -8 4 2
-1 15 11 68 19 83 8 13 11 7 7 -10z m410 -448 c6 -6 20 -17 31 -24 l20 -13
-20 7 c-42 14 -55 14 -55 -1 0 -8 -3 -13 -7 -11 -5 3 -8 -8 -8 -23 0 -15 3
-26 6 -24 4 2 10 -3 13 -12 3 -8 2 -12 -4 -9 -6 3 -10 1 -10 -6 0 -8 -4 -8
-15 1 -8 7 -15 8 -15 2 0 -13 25 -33 33 -25 4 3 14 0 23 -7 11 -10 18 -10 22
-3 5 8 12 7 25 -2 17 -12 16 -14 -13 -20 -17 -4 -34 -14 -37 -22 -5 -12 -7
-12 -14 -1 -6 9 -9 6 -10 -12 0 -14 -3 -19 -6 -12 -6 16 -28 -22 -37 -65 -13
-62 -8 -185 9 -201 2 -3 0 -11 -6 -18 -7 -8 -7 -14 1 -19 15 -9 12 -25 -5 -25
-8 0 -15 7 -15 15 0 9 -9 26 -21 38 -41 44 -50 82 -65 283 -8 107 2 147 49
192 22 22 43 32 70 34 20 1 37 7 38 13 0 5 3 3 6 -5 4 -8 11 -20 17 -25z
m-662 -196 c1 -24 3 -38 6 -31 2 6 8 12 14 12 6 0 8 -6 5 -14 -7 -18 30 -79
43 -71 6 4 9 1 8 -5 -2 -7 6 -17 17 -23 11 -7 22 -15 25 -18 3 -4 15 -9 28
-13 12 -4 22 -12 22 -17 0 -5 5 -9 11 -9 6 0 36 -15 68 -33 31 -19 68 -37 83
-40 15 -4 40 -12 55 -19 15 -6 34 -12 41 -14 40 -8 24 -43 -18 -42 -18 1 -35
-5 -40 -12 -5 -8 -10 -9 -14 -2 -4 6 -12 9 -19 6 -17 -6 -83 22 -94 39 -9 15
-108 77 -123 77 -6 0 -13 7 -16 15 -4 8 -12 15 -19 15 -7 0 -18 7 -25 15 -6 8
-15 13 -19 12 -4 -1 -24 14 -43 35 -27 27 -33 39 -25 47 9 9 8 14 -2 21 -13 7
-13 11 -1 25 11 13 11 18 1 24 -10 6 -9 10 3 14 9 4 16 18 16 33 0 44 10 21
12 -27z m758 -450 c0 -11 -5 -30 -12 -42 -10 -19 -9 -20 4 -10 8 7 18 10 22 6
4 -4 -4 -13 -16 -20 -13 -7 -17 -12 -10 -13 9 0 11 -7 7 -21 -5 -15 -4 -19 5
-14 6 4 10 16 7 26 -3 12 0 19 9 19 8 0 14 9 14 19 0 31 12 55 20 41 6 -9 13
-9 29 -1 14 8 21 8 21 1 0 -18 -5 -25 -15 -22 -5 2 -1 -6 9 -17 15 -16 22 -18
33 -9 10 8 17 8 24 1 8 -8 7 -13 0 -17 -6 -4 -11 -2 -11 4 0 6 -4 9 -10 5 -5
-3 -7 -12 -3 -20 3 -8 0 -15 -7 -15 -6 0 -8 5 -5 10 3 6 1 10 -4 10 -6 0 -11
-3 -11 -8 0 -4 -10 -13 -22 -21 -22 -14 -22 -14 -5 12 14 22 14 25 2 21 -8 -4
-15 -9 -15 -13 0 -4 -7 -16 -16 -27 -8 -10 -12 -13 -8 -5 4 9 3 12 -4 7 -5 -3
-9 -21 -8 -39 4 -47 5 -51 12 -44 4 3 19 0 35 -8 16 -9 32 -15 36 -14 20 3 33
-2 31 -13 -2 -9 12 -14 39 -16 35 -3 42 0 37 12 -3 9 -10 16 -16 16 -5 0 -7
-4 -4 -8 2 -4 -8 -9 -24 -10 -23 -2 -28 1 -23 13 3 9 12 14 21 10 8 -3 20 -1
27 5 9 8 14 6 19 -5 3 -8 18 -15 33 -15 l28 0 -30 -24 c-16 -13 -33 -22 -37
-19 -5 2 -8 0 -8 -5 0 -28 -145 -35 -193 -11 -33 17 -67 51 -67 66 0 7 -4 13
-10 13 -19 0 -11 107 12 155 12 25 26 45 30 45 4 0 8 7 8 15 0 8 5 15 10 15 6
0 10 -9 10 -21z m-438 -144 c5 -6 8 -5 8 3 0 8 5 10 13 5 6 -4 18 -8 26 -10 8
-1 18 -8 22 -15 7 -10 9 -10 9 2 0 9 7 5 18 -11 9 -14 23 -24 31 -21 10 3 12
0 8 -12 -4 -10 -3 -15 3 -11 5 3 15 -3 22 -15 7 -11 21 -20 30 -20 10 0 18 -5
18 -10 0 -12 -80 -5 -108 9 -9 5 -53 24 -97 42 -81 34 -117 57 -110 69 7 11
99 6 107 -5z m2280 -1004 c-2 -8 4 -21 11 -30 15 -16 29 -107 15 -93 -4 4 -9
20 -10 35 -1 15 -5 27 -8 28 -36 5 -53 4 -68 -7 -16 -13 -16 -13 1 -14 10 0
15 -4 12 -10 -9 -14 8 -12 24 3 11 10 13 10 7 0 -4 -7 -3 -13 3 -13 6 0 8 -7
5 -15 -4 -8 -10 -15 -15 -15 -4 0 -6 6 -3 13 3 10 -5 13 -32 11 -38 -3 -61
-14 -29 -14 10 0 15 -3 11 -7 -4 -4 -15 -8 -24 -8 -9 0 -16 -6 -14 -12 1 -7
-3 -13 -9 -13 -6 0 -9 7 -5 15 6 17 4 18 -18 9 -8 -3 -12 -12 -9 -20 4 -10 -3
-14 -21 -14 -16 0 -26 -6 -26 -15 0 -8 -6 -15 -14 -15 -8 0 -21 -9 -29 -20 -8
-12 -21 -18 -29 -15 -11 4 -17 -2 -20 -19 -3 -14 -1 -26 3 -26 5 0 4 -9 -3
-19 -13 -22 -37 -17 -39 8 -1 14 -2 14 -6 -1 -2 -10 -11 -18 -18 -18 -18 0
-12 32 15 76 20 31 19 39 -2 35 -5 0 -8 4 -8 10 0 6 8 8 19 4 21 -6 66 34 77
68 3 10 12 16 19 13 7 -2 16 2 19 10 4 10 13 13 25 9 14 -4 20 -1 23 12 3 16
4 16 18 2 13 -15 16 -15 27 0 11 14 14 14 22 1 9 -12 13 -11 33 7 15 14 33 20
51 18 18 -2 27 1 24 8 -2 7 -11 11 -19 9 -9 -1 -21 5 -28 13 -8 9 -9 15 -4 14
5 -1 16 -1 24 0 13 1 13 2 0 12 -12 8 -11 9 5 6 11 -2 19 -9 17 -16z m-852
-1280 c5 -19 5 -31 -1 -31 -5 0 -9 -11 -9 -25 0 -15 -6 -25 -14 -25 -7 0 -19
-6 -25 -14 -6 -7 -25 -16 -42 -20 -17 -3 -28 -10 -24 -15 3 -5 0 -13 -6 -17
-8 -4 -9 -3 -5 4 9 15 4 15 -70 -3 -34 -8 -89 -17 -124 -21 -51 -5 -62 -4 -57
7 2 8 10 13 16 12 6 -2 11 1 11 6 0 5 8 8 18 7 12 -1 16 5 14 19 -2 16 -1 17
7 5 9 -13 12 -12 24 4 8 11 19 16 24 13 6 -4 14 0 17 8 4 13 10 14 26 5 11 -6
20 -7 19 -3 -1 4 -1 15 0 23 1 13 2 13 11 0 5 -8 10 -11 10 -6 0 5 6 3 14 -3
11 -9 14 -8 12 6 -1 13 5 17 22 15 12 -2 22 2 22 8 0 6 5 8 12 4 17 -11 58
-13 58 -4 0 5 -6 11 -12 14 -9 4 -8 5 2 5 39 -3 43 1 36 33 -8 39 1 32 14 -11z"/>
<path d="M5797 4635 c-17 -17 -31 -20 -22 -5 3 6 2 10 -4 10 -5 0 -15 -8 -20
-17 -6 -10 -11 -12 -11 -5 0 6 -8 12 -17 11 -11 0 -13 -3 -5 -6 18 -7 15 -21
-8 -28 -11 -4 -18 -11 -15 -16 4 -5 -8 -9 -24 -9 -17 0 -31 -3 -31 -7 0 -9
-25 -11 -107 -12 -42 -1 -51 -4 -47 -16 4 -8 10 -15 15 -15 5 0 9 -4 9 -10 0
-5 -11 -10 -25 -10 -14 0 -25 5 -25 11 0 5 5 7 10 4 6 -3 10 -1 10 5 0 6 -13
16 -30 21 -16 6 -30 15 -30 21 0 5 -4 6 -10 3 -5 -3 -7 -26 -5 -50 4 -35 1
-45 -10 -45 -21 0 -19 -38 3 -43 12 -3 10 -5 -7 -6 -13 0 -21 -4 -18 -7 10
-10 -12 -44 -28 -44 -8 0 -15 -4 -15 -10 0 -5 8 -7 18 -4 14 5 14 4 2 -4 -10
-8 -18 -8 -27 0 -10 8 -13 5 -13 -11 0 -11 -5 -21 -11 -21 -5 0 -7 5 -4 10 3
6 2 10 -3 10 -13 0 -36 -115 -27 -131 6 -9 3 -11 -8 -6 -10 3 -17 2 -17 -3 0
-6 -7 -10 -16 -10 -11 0 -14 -6 -8 -22 4 -13 7 -28 7 -34 0 -6 6 -11 12 -11 7
0 11 13 9 34 -1 18 2 33 7 33 9 0 14 -35 11 -73 -1 -10 5 -20 13 -23 8 -4 12
-11 9 -16 -4 -6 -10 -5 -16 3 -6 10 -8 7 -6 -11 2 -14 9 -25 16 -25 6 0 11 -4
10 -10 -2 -5 -8 -9 -14 -7 -6 1 -11 -5 -11 -13 0 -9 6 -14 14 -11 16 7 17 -16
1 -32 -8 -8 -8 -12 -1 -12 6 0 13 7 17 15 3 8 13 15 23 15 17 -1 17 -1 1 -14
-10 -7 -18 -15 -18 -18 0 -2 23 -11 51 -18 27 -8 53 -18 56 -24 4 -5 -1 -7
-10 -3 -9 3 -19 1 -23 -5 -4 -6 -3 -8 4 -4 6 3 17 0 25 -8 12 -13 17 -13 36 0
18 13 20 13 15 -1 -4 -10 0 -15 10 -15 9 0 16 -6 16 -12 0 -10 3 -9 9 1 6 9
11 10 15 2 4 -6 13 -9 19 -5 7 3 4 -1 -5 -9 -25 -20 -23 -24 17 -19 39 5 43
-1 18 -26 -16 -16 -16 -16 -10 1 7 19 -17 25 -28 7 -5 -8 -11 -8 -20 0 -9 8
-14 6 -19 -5 -4 -11 1 -15 19 -15 14 0 25 -4 25 -10 0 -5 -9 -10 -21 -10 -13
0 -23 -8 -26 -20 -4 -16 -9 -18 -19 -9 -9 7 -10 17 -4 35 7 18 6 24 -4 24 -15
0 -19 -47 -5 -56 5 -3 9 -12 9 -20 0 -8 -4 -13 -9 -10 -5 3 -12 -5 -15 -19 -4
-15 -14 -25 -24 -25 -10 0 -26 -10 -37 -22 -12 -15 -20 -18 -23 -10 -2 7 -13
12 -23 12 -11 0 -18 4 -15 8 3 5 -1 9 -8 9 -8 0 -13 -11 -13 -24 0 -18 2 -21
13 -12 7 6 19 9 26 6 8 -4 7 -6 -4 -6 -24 -1 -23 -13 2 -29 11 -7 20 -17 20
-22 0 -6 -10 -2 -22 9 -11 11 -26 18 -31 14 -6 -4 -4 -10 4 -17 8 -6 13 -19
11 -28 -2 -12 3 -18 15 -19 10 0 13 -3 5 -6 -6 -2 -10 -9 -7 -14 4 -5 -2 -6
-12 -2 -17 6 -17 5 0 -14 23 -26 22 -32 -5 -26 -14 3 -18 1 -12 -4 19 -13 22
-89 4 -78 -5 3 -7 12 -4 20 4 9 -5 17 -28 24 -18 5 -25 10 -15 10 19 1 23 16
5 27 -7 4 -8 3 -4 -4 4 -7 2 -12 -4 -12 -6 0 -13 7 -16 15 -6 15 -66 17 -81 2
-3 -4 -19 -7 -34 -7 -15 0 -31 -5 -35 -11 -4 -8 0 -9 15 -4 12 3 21 2 21 -4 0
-15 -15 -21 -57 -23 -21 -1 -32 -3 -25 -6 7 -2 10 -8 6 -13 -3 -5 -1 -9 5 -9
5 0 11 6 14 13 3 8 8 9 16 1 8 -8 5 -14 -14 -24 -14 -7 -25 -17 -25 -22 0 -4
-11 -8 -24 -8 -25 0 -36 -15 -29 -37 6 -16 33 -17 33 -2 0 5 -4 7 -10 4 -5 -3
-10 -2 -10 3 0 11 30 25 38 17 3 -3 1 -5 -5 -5 -6 0 -8 -10 -6 -22 4 -21 10
-23 66 -24 34 -1 105 -3 157 -4 52 -2 104 1 114 5 14 6 17 5 12 -3 -4 -7 -3
-12 2 -12 10 0 33 24 29 31 -1 2 4 -4 12 -13 19 -25 30 -22 24 5 -4 21 -4 22
11 3 15 -18 17 -19 29 -3 12 16 31 18 52 5 6 -3 19 -2 30 3 16 6 16 8 3 8 -22
1 -28 23 -10 37 13 9 11 12 -12 18 -21 5 -26 11 -21 24 8 20 8 20 6 51 -1 18
-5 22 -20 18 -15 -4 -20 2 -25 26 -3 17 -4 32 -1 35 3 3 5 -2 5 -11 0 -10 5
-17 11 -17 5 0 7 -5 3 -11 -4 -7 1 -10 11 -7 10 1 20 9 23 16 2 7 0 12 -5 11
-21 -4 -32 2 -27 16 4 8 10 12 15 9 5 -3 9 7 10 23 0 15 3 23 5 16 6 -13 44
19 44 36 0 5 10 7 23 5 12 -2 16 -2 10 2 -10 4 -9 9 3 21 8 9 13 22 9 31 -4
12 -3 13 10 2 8 -7 15 -9 16 -4 0 5 3 20 5 34 12 62 13 154 3 166 -6 7 -8 18
-5 23 10 15 -15 25 -25 10 -6 -9 -8 -1 -5 22 4 32 2 36 -15 32 -12 -4 -21 1
-26 13 -4 11 -16 26 -27 35 -15 12 -16 18 -6 24 9 5 11 4 6 -3 -5 -8 -2 -10 9
-6 23 9 5 20 -39 23 -6 1 -2 7 8 14 18 13 18 14 2 20 -10 4 -22 4 -28 1 -7 -5
-7 -1 0 11 7 13 6 22 -2 31 -8 9 -14 5 -23 -20 l-13 -31 5 39 5 38 -24 -16
c-24 -15 -25 -15 -32 7 -5 12 -7 29 -5 37 2 8 -1 12 -5 7 -4 -4 -8 -17 -9 -30
-2 -30 -19 -28 -23 3 -2 14 -8 30 -14 35 -6 7 -9 7 -8 0 4 -21 0 -32 -13 -32
-9 0 -12 9 -9 24 2 13 -1 23 -7 23 -14 0 -3 102 12 112 17 10 41 -12 27 -26
-5 -5 -10 -18 -10 -28 0 -16 2 -17 14 -6 8 7 12 16 9 21 -2 4 3 7 12 7 13 0
16 -6 11 -25 -8 -30 10 -34 19 -5 10 31 25 24 26 -12 1 -18 3 -25 6 -15 5 20
14 22 30 6 19 -19 32 -1 23 31 -5 19 -5 28 1 25 5 -4 9 -15 9 -26 0 -11 4 -17
10 -14 5 3 7 0 4 -8 -6 -18 12 -32 21 -17 8 13 35 13 35 -1 0 -5 -4 -8 -8 -5
-5 3 -9 -1 -9 -9 0 -8 4 -12 9 -9 4 3 8 -2 8 -10 0 -8 -6 -18 -12 -22 -7 -4
-10 -4 -6 1 7 7 -14 35 -26 35 -13 0 0 -26 24 -47 14 -13 19 -23 13 -23 -7 0
-13 -5 -13 -11 0 -6 9 -8 21 -4 26 8 39 -8 33 -42 -3 -18 0 -23 16 -23 11 0
20 -3 20 -8 0 -4 14 -8 30 -8 19 -1 29 3 27 10 -2 6 -11 10 -21 8 -27 -5 -18
5 14 17 17 5 28 6 25 1 -3 -5 0 -12 6 -16 8 -4 9 -3 5 4 -5 8 0 12 13 12 12 0
21 7 21 16 0 8 5 12 10 9 6 -3 10 0 11 7 0 7 5 3 11 -8 l10 -22 22 22 c11 11
19 28 18 36 -2 8 4 5 13 -7 12 -18 13 -27 5 -43 -15 -28 -4 -25 26 8 17 18 27
23 31 15 11 -28 22 -10 19 32 -1 25 1 45 6 45 4 0 8 4 8 10 0 5 -18 9 -40 7
-22 -1 -40 -5 -40 -8 0 -3 -13 -4 -30 -1 -24 3 -30 1 -30 -13 0 -14 3 -15 14
-6 17 14 46 4 46 -16 0 -9 -5 -11 -12 -7 -7 5 -27 7 -44 5 -20 -1 -36 4 -45
15 -10 12 -10 15 -1 10 9 -6 11 -1 8 18 -5 27 17 38 27 14 3 -7 6 5 7 27 2 39
2 39 10 11 5 -16 6 -34 3 -40 -5 -7 -2 -7 8 0 8 6 25 10 39 8 14 -1 19 0 12 2
-6 3 -10 10 -7 14 3 5 0 12 -6 16 -7 4 -9 3 -5 -4 3 -6 2 -13 -4 -17 -5 -3
-10 2 -10 12 0 15 -2 16 -10 3 -8 -12 -10 -11 -10 7 0 20 3 21 33 13 29 -9 30
-8 13 5 -16 12 -17 15 -4 15 17 0 18 15 4 39 -7 10 -5 12 4 6 9 -6 10 -2 5 15
-5 16 -4 20 5 15 6 -4 10 -16 7 -26 -3 -12 2 -23 14 -30 11 -5 19 -6 18 -2 -1
4 -1 17 0 28 1 16 3 17 10 5 6 -8 7 -18 4 -24 -3 -5 -1 -6 5 -2 5 3 12 3 15
-1 2 -5 2 -3 1 4 -4 17 13 26 19 11 3 -7 6 -3 6 10 1 12 -4 22 -10 22 -6 0 -8
9 -4 22 6 17 4 20 -9 15 -9 -4 -16 -2 -16 4 0 6 -7 3 -16 -6 -15 -14 -17 -14
-30 2 -11 15 -13 16 -14 2 0 -11 -9 -16 -29 -16 -21 0 -28 5 -26 16 1 9 10 17
21 18 18 3 18 2 -1 -6 -19 -9 -19 -10 2 -10 19 -1 22 4 20 37 -3 48 -30 72
-41 35 -3 -11 -4 -7 -3 7 2 19 -2 24 -15 22 -10 -2 -18 2 -18 8 0 6 5 8 10 5
6 -3 10 -1 10 4 0 6 7 11 16 11 8 0 13 -4 10 -9 -11 -17 27 -21 50 -6 21 13
24 13 34 -3 11 -16 11 -16 6 1 -3 10 -6 21 -6 23 0 12 -39 2 -44 -12 -3 -8
-10 -12 -16 -9 -6 4 -5 12 5 21 8 9 15 21 15 27 0 7 -7 3 -15 -7 -8 -11 -17
-17 -20 -14 -10 10 27 39 41 34 8 -3 14 -1 14 4 0 6 -10 10 -23 10 -34 0 -38
9 -15 32 11 11 17 22 14 25 -3 3 -13 -2 -22 -12 -17 -17 -18 -17 -25 1 -4 11
-8 13 -8 5 -1 -10 -4 -11 -15 -2 -11 9 -17 8 -29 -4z m-103 -90 c3 -8 1 -15
-5 -15 -6 0 -6 -7 1 -20 6 -10 9 -23 9 -27 -1 -4 1 -16 4 -25 4 -10 10 -26 14
-35 3 -10 5 -22 4 -27 -1 -4 3 -14 10 -22 6 -7 8 -18 4 -24 -4 -6 0 -17 9 -23
15 -11 13 -14 -14 -30 -17 -10 -30 -15 -29 -10 3 18 -2 24 -13 16 -7 -4 -22
-7 -33 -8 -11 0 -19 -6 -17 -13 1 -8 -2 -11 -7 -7 -15 9 9 55 25 48 8 -3 14 0
14 6 0 12 -11 14 -47 12 -11 -1 -24 3 -28 8 -3 6 2 12 12 13 10 0 23 2 30 2 6
1 15 5 19 9 6 6 -44 12 -69 8 -4 -1 -2 8 5 18 7 11 16 17 20 15 4 -3 8 0 8 5
0 6 -18 11 -40 11 -30 0 -38 3 -34 14 3 8 0 17 -5 21 -6 3 -9 11 -5 16 3 5 0
16 -6 24 -14 16 -10 17 63 18 20 0 37 5 37 11 0 6 4 5 9 -3 8 -12 11 -12 25 1
8 9 12 18 9 22 -4 3 -2 6 4 6 6 0 13 -7 17 -15z"/>
<path d="M6339 4533 c-3 -124 3 -167 27 -215 20 -40 74 -107 74 -92 0 3 11 -7
25 -21 14 -14 32 -25 40 -25 8 0 15 -4 15 -10 0 -5 19 -24 43 -41 23 -17 41
-36 39 -42 -1 -7 7 -1 19 13 11 14 18 19 14 13 -3 -7 -1 -13 4 -13 6 0 11 5
11 10 0 6 3 9 8 9 23 -4 24 4 2 22 -14 11 -20 18 -14 15 6 -3 18 4 27 15 18
21 9 27 -12 7 -10 -11 -12 -9 -11 7 4 37 0 45 -20 45 -21 0 -27 15 -10 25 6 3
10 1 10 -4 0 -6 7 -11 15 -11 20 0 19 19 0 26 -9 4 -23 18 -31 33 -8 14 -13
18 -10 9 7 -22 -22 -25 -30 -4 -3 8 -12 12 -20 9 -8 -3 -14 0 -14 6 0 6 -9 11
-20 11 -14 0 -18 5 -13 17 4 9 2 14 -3 10 -6 -3 -18 7 -27 23 -11 18 -23 27
-32 23 -10 -3 -15 1 -15 12 0 20 -25 47 -34 37 -4 -3 -4 1 -1 10 4 10 -2 25
-14 37 -13 13 -21 34 -21 55 0 19 -4 38 -10 41 -6 4 -10 -19 -11 -62z"/>
<path d="M6227 4213 c-6 -11 -2 -42 8 -73 5 -14 8 -38 7 -55 -2 -47 -23 -125
-33 -125 -5 0 -9 -7 -9 -15 0 -8 -9 -25 -20 -37 -12 -13 -27 -30 -35 -39 -8
-9 -15 -21 -15 -27 0 -6 -7 -15 -15 -20 -9 -4 -17 -18 -20 -30 -2 -12 -7 -27
-10 -32 -3 -6 -1 -10 5 -10 6 0 8 -5 5 -10 -4 -6 -11 -8 -16 -5 -5 4 -9 1 -9
-5 0 -6 -5 -8 -12 -4 -7 4 -8 3 -4 -5 4 -6 13 -9 19 -5 7 3 1 -4 -13 -15 -14
-11 -19 -21 -12 -21 6 0 20 8 30 18 12 12 40 21 73 25 30 3 96 19 146 36 51
17 117 34 148 37 30 4 55 12 55 18 0 6 5 4 10 -4 7 -11 9 -6 9 20 -1 19 -3 27
-6 18 -5 -19 -33 -25 -33 -7 0 5 5 7 12 3 7 -5 9 -1 6 13 -3 11 -1 28 4 37 6
10 5 16 -2 16 -5 0 -10 9 -10 20 0 40 -49 116 -109 170 -34 30 -77 70 -95 88
-34 32 -51 39 -59 25z"/>
<path d="M2506 3974 c4 -17 3 -25 -3 -21 -6 4 -8 -3 -5 -19 3 -17 16 -30 41
-40 20 -8 38 -15 41 -15 3 0 13 -8 23 -16 9 -9 20 -13 24 -10 3 4 1 7 -5 7 -7
0 -12 5 -12 11 0 8 5 8 15 -1 8 -7 15 -21 15 -31 0 -11 5 -19 10 -19 10 0 14
21 10 49 -1 11 2 11 14 -2 9 -9 13 -23 10 -32 -6 -16 -4 -16 22 -2 20 10 38
12 59 6 19 -6 32 -5 36 3 11 18 39 18 39 1 0 -13 -3 -13 -15 -3 -13 11 -15 8
-15 -16 0 -21 3 -25 9 -15 8 12 12 12 25 2 14 -12 16 -10 16 8 0 24 4 25 31
11 17 -10 19 -7 19 21 0 26 -3 29 -14 20 -11 -9 -18 -8 -30 4 -9 9 -16 20 -16
25 0 5 -7 7 -15 4 -10 -4 -15 0 -15 11 0 9 -4 14 -8 11 -5 -3 -21 2 -36 9 -16
8 -32 12 -37 9 -5 -3 -9 1 -9 8 -1 8 -6 6 -15 -6 -10 -14 -15 -15 -15 -6 0 11
-3 11 -12 2 -9 -9 -16 -8 -28 3 -10 9 -30 18 -46 20 -16 2 -39 7 -51 11 -20 5
-23 3 -23 -20 0 -14 5 -26 10 -26 6 0 10 5 10 10 0 7 5 6 13 -2 24 -22 16 -36
-12 -22 -17 9 -27 10 -32 3 -11 -18 -20 7 -14 34 4 14 16 29 28 35 20 10 19
11 -11 11 -30 1 -32 -1 -26 -25z"/>
<path d="M6593 3761 c-11 -30 -34 -49 -54 -44 -10 3 -25 0 -33 -6 -8 -7 -18
-11 -22 -9 -13 3 -108 -42 -116 -56 -5 -7 -8 -6 -8 3 0 11 -5 10 -21 -5 -17
-16 -22 -16 -29 -4 -7 10 -10 11 -10 3 0 -7 -8 -13 -17 -13 -16 -1 -16 -2 1
-15 14 -10 22 -12 27 -4 4 8 15 6 36 -5 17 -8 33 -12 37 -9 3 4 6 1 6 -6 0 -7
5 -9 10 -6 6 3 10 -3 10 -13 0 -15 5 -19 20 -15 15 4 20 0 21 -13 0 -11 3 -14
6 -6 2 6 11 12 18 12 7 0 16 -6 18 -12 4 -10 6 -10 6 0 1 6 7 12 14 12 7 0 17
10 22 23 6 12 12 20 15 18 3 -2 14 1 26 7 16 8 24 8 34 -1 10 -9 11 -9 6 1 -4
6 -2 12 4 12 6 0 9 4 6 9 -8 12 21 34 34 26 6 -4 10 -3 9 2 -1 4 2 18 6 31 6
18 10 20 21 11 11 -9 14 -6 14 19 0 38 -15 50 -24 19 -5 -18 -8 -19 -16 -7 -6
10 -6 16 0 18 6 2 10 12 10 22 0 15 -8 19 -41 18 -28 0 -42 -5 -46 -17z"/>
<path d="M6825 3539 c3 -16 -2 -19 -34 -19 -30 0 -47 -9 -91 -47 -81 -71 -166
-158 -173 -177 -4 -9 -11 -16 -17 -16 -6 0 -8 -4 -5 -10 3 -5 1 -10 -4 -10 -6
0 -11 -9 -11 -21 0 -11 -4 -18 -9 -15 -5 3 -14 -1 -21 -9 -7 -8 -9 -15 -4 -16
5 0 -1 -4 -13 -9 -13 -5 -23 -16 -23 -25 0 -8 -5 -15 -11 -15 -5 0 -8 -4 -4
-9 3 -5 0 -13 -6 -17 -9 -5 -7 -11 6 -21 18 -12 18 -13 -4 -13 -27 0 -24 -23
4 -28 10 -2 15 0 11 6 -4 6 2 8 14 5 16 -4 19 -2 14 11 -5 12 0 16 19 16 14 0
28 7 31 16 5 13 9 14 22 3 12 -10 15 -10 12 2 -2 10 5 13 27 11 22 -2 26 0 16
7 -21 14 -22 41 -3 41 10 0 25 7 35 14 18 14 18 15 0 26 -15 9 -15 11 -1 6 9
-3 19 0 22 7 6 15 6 -45 -1 -94 -4 -31 -10 -39 -43 -54 -22 -10 -37 -22 -33
-28 3 -6 1 -7 -4 -4 -13 8 -60 -15 -90 -43 -12 -11 -27 -20 -33 -20 -6 0 -9
-4 -6 -9 4 -5 0 -12 -6 -14 -8 -3 -6 -6 5 -6 10 -1 16 -5 13 -9 -2 -4 -24 -6
-48 -3 -37 4 -40 5 -18 12 23 7 23 7 -7 8 -18 1 -33 -3 -33 -9 0 -5 0 -13 0
-17 0 -5 18 -7 40 -6 22 1 40 -2 40 -8 0 -6 5 -7 10 -4 20 12 10 -6 -17 -31
-15 -14 -19 -22 -10 -18 10 3 17 1 17 -5 0 -6 -7 -11 -15 -11 -8 0 -15 -7 -15
-16 0 -15 -23 -44 -35 -44 -3 0 -3 6 1 13 5 8 2 8 -9 -2 -27 -21 -22 -44 8
-37 14 4 25 2 25 -3 0 -5 -13 -8 -30 -7 -30 2 -39 -7 -19 -19 6 -4 8 -13 5
-21 -4 -10 2 -14 20 -14 17 0 27 -8 34 -25 6 -16 14 -23 25 -19 11 5 15 -1 15
-20 0 -19 5 -26 20 -26 25 0 25 -8 3 -27 -17 -13 -17 -13 2 -11 13 2 20 -4 23
-17 2 -16 1 -17 -7 -5 -9 12 -11 12 -11 1 0 -8 8 -20 18 -28 9 -8 11 -12 5 -8
-7 3 -20 2 -30 -3 -12 -7 -24 -5 -42 7 -14 9 -22 11 -18 4 5 -7 4 -13 -2 -13
-6 0 -11 -4 -11 -10 0 -5 7 -7 15 -4 19 8 19 -7 1 -51 -8 -18 -12 -36 -8 -39
3 -3 1 -6 -5 -6 -6 0 -10 13 -9 30 1 16 5 30 10 30 14 0 -2 14 -20 16 -8 1
-14 -3 -13 -9 3 -25 -1 -38 -11 -32 -5 3 -10 15 -10 26 0 10 -4 19 -10 19 -5
0 -10 -14 -10 -31 0 -16 4 -28 9 -25 4 3 17 -1 27 -9 18 -14 18 -14 1 -15 -12
0 -16 -4 -11 -12 10 -17 -25 9 -49 37 l-18 20 10 -22 c15 -29 14 -36 -3 -30
-9 4 -14 0 -14 -11 0 -9 -3 -30 -7 -45 -6 -24 -4 -29 14 -34 17 -4 21 -12 19
-47 l-1 -41 -4 38 c-5 45 -19 49 -25 7 -3 -17 -1 -30 3 -30 10 0 5 -28 -8 -41
-7 -7 -14 -4 -24 7 -11 14 -11 16 -1 10 10 -6 13 -3 10 9 -1 10 -9 20 -17 23
-10 3 -13 -3 -9 -25 6 -40 -18 -39 -27 1 -6 29 -7 30 -15 10 -5 -12 -14 -25
-21 -30 -9 -5 -10 -2 -6 9 3 10 2 17 -3 17 -6 0 -10 -12 -10 -27 0 -22 -2 -25
-10 -13 -5 8 -10 10 -10 5 0 -6 5 -16 12 -23 9 -9 9 -12 -2 -12 -21 0 -5 -10
24 -16 14 -2 26 0 26 6 0 5 -5 9 -12 7 -6 -1 -13 5 -15 13 -2 10 4 16 19 17
13 0 17 -1 10 -4 -6 -3 -9 -9 -6 -14 4 -6 11 -6 19 1 9 8 15 8 20 0 4 -6 1 -9
-6 -8 -7 2 -14 -6 -16 -17 -3 -16 -2 -17 6 -5 7 10 11 11 11 3 0 -7 5 -13 10
-13 6 0 10 7 10 15 0 8 5 15 11 15 7 0 6 -8 -4 -22 -9 -15 -25 -23 -42 -23
-32 0 -45 -21 -18 -28 17 -4 17 -5 1 -6 -22 -1 -24 -21 -3 -21 9 0 18 7 21 15
4 8 14 15 23 15 14 0 14 -2 1 -10 -8 -5 -11 -12 -8 -15 4 -4 17 0 30 9 29 20
48 21 22 1 -18 -14 -18 -15 8 -11 24 4 26 1 25 -22 -2 -30 -24 -52 -44 -45 -7
3 -18 -7 -24 -21 -7 -14 -17 -26 -22 -26 -5 0 -4 6 2 14 9 10 8 15 -4 20 -11
4 -15 -1 -15 -18 0 -22 -4 -24 -50 -22 -53 1 -55 3 -40 26 6 9 10 11 10 3 0
-7 7 -10 17 -6 15 6 14 7 -3 13 -22 8 -46 2 -39 -10 3 -5 1 -11 -5 -15 -9 -5
-14 6 -12 25 0 3 -9 6 -21 7 -12 0 -16 -1 -9 -4 15 -6 16 -33 2 -33 -6 0 -15
10 -20 23 -8 21 -9 21 -9 -5 -1 -27 29 -55 43 -41 3 3 6 -1 6 -10 0 -9 9 -26
21 -38 17 -17 18 -23 7 -37 -11 -14 -11 -15 6 -9 15 6 17 5 7 -6 -8 -11 -6
-18 8 -31 11 -10 25 -15 30 -11 6 3 11 1 11 -4 0 -6 -6 -11 -14 -11 -8 0 -17
-4 -20 -9 -3 -4 6 -6 19 -3 15 2 25 0 25 -7 0 -7 6 -11 13 -10 35 4 55 -3 60
-21 3 -11 11 -20 17 -20 10 0 10 3 0 15 -10 12 -10 15 4 15 9 0 16 -6 16 -14
0 -8 7 -17 16 -20 23 -9 27 -8 20 10 -3 8 -2 13 3 9 5 -3 11 -2 14 2 2 5 2 2
0 -6 -2 -8 2 -18 9 -23 8 -5 2 -8 -18 -8 -17 0 -37 -7 -44 -15 -7 -8 -16 -12
-21 -9 -5 3 -6 -1 -3 -9 3 -8 -6 -21 -20 -30 -26 -18 -40 -10 -30 17 5 12 2
15 -10 10 -9 -3 -13 -10 -10 -15 3 -6 0 -17 -8 -26 -11 -14 -14 -12 -18 17 -3
18 -11 35 -18 38 -9 3 -11 -3 -6 -22 4 -16 2 -26 -5 -26 -6 0 -12 10 -13 23 0
12 -1 29 -2 37 -2 26 -20 6 -21 -22 -1 -29 -15 -53 -15 -25 0 9 -4 17 -10 17
-5 0 -10 5 -10 11 0 5 3 8 8 6 4 -3 7 5 7 18 0 17 -7 25 -23 28 -16 3 -19 1
-13 -7 6 -7 9 -22 8 -34 -1 -16 -7 -21 -25 -19 -21 1 -22 2 -6 14 10 7 13 13
7 13 -6 0 -9 9 -5 22 3 15 2 19 -7 14 -6 -4 -18 -3 -26 4 -10 8 -15 8 -21 -1
-4 -7 -3 -10 2 -6 11 6 40 -14 39 -28 0 -5 -4 -16 -9 -23 -10 -16 -4 -23 23
-25 22 -1 30 -17 9 -17 -9 0 -9 -3 1 -9 8 -5 11 -16 7 -26 -7 -19 11 -48 25
-39 5 3 6 -2 3 -10 -4 -11 -12 -7 -35 16 -16 17 -29 35 -29 40 0 5 -6 3 -14
-4 -12 -11 -12 -14 0 -21 8 -4 14 -13 14 -18 0 -6 -4 -7 -10 -4 -6 3 -7 -1 -4
-9 7 -18 24 -22 24 -5 0 5 4 8 10 4 5 -3 7 -12 4 -19 -3 -7 2 -21 11 -30 9 -9
14 -20 10 -26 -10 -15 25 -80 44 -80 12 0 13 -2 3 -8 -9 -6 -10 -16 -4 -33 5
-13 12 -23 16 -21 3 1 6 0 6 -3 0 -3 -3 -4 -7 -4 -23 4 -31 12 -26 27 5 14 3
15 -7 5 -11 -10 -11 -15 0 -28 10 -12 10 -15 -2 -15 -22 0 -48 36 -35 49 8 8
6 11 -9 11 -19 0 -57 33 -62 55 -1 6 -12 9 -23 9 -12 -1 -29 10 -41 26 -12 16
-27 26 -34 23 -8 -3 -21 0 -29 7 -11 9 -15 9 -15 1 0 -8 -6 -9 -17 -3 -10 4
-34 7 -55 6 -22 -2 -38 2 -41 10 -4 9 4 12 24 11 17 -1 32 2 35 6 3 5 -11 8
-31 7 -41 -1 -50 5 -41 29 6 15 8 15 16 3 10 -15 11 -12 14 23 1 6 5 15 10 19
6 4 4 14 -5 24 -9 11 -9 15 -1 10 7 -4 12 -1 12 8 0 19 24 21 42 3 7 -8 19
-12 27 -9 9 3 12 0 9 -10 -5 -12 1 -14 29 -12 41 2 45 5 27 22 -10 9 -14 10
-14 1 0 -7 -8 -2 -19 9 -10 12 -21 19 -25 15 -3 -3 -6 -1 -6 6 0 8 -7 10 -19
6 -15 -5 -18 -1 -13 20 4 25 -2 29 -40 26 -10 -1 -18 4 -18 13 0 11 9 16 27
16 55 0 -6 18 -80 24 -39 3 -60 -14 -50 -41 7 -18 -16 -16 -23 2 -4 8 -13 15
-22 15 -13 0 -13 -2 3 -13 12 -10 14 -16 7 -21 -7 -4 -16 -5 -21 -1 -5 3 -12
1 -15 -4 -3 -5 2 -12 11 -15 15 -6 15 -9 3 -16 -8 -5 -19 -6 -25 -2 -5 3 -4
-2 4 -11 11 -15 11 -17 -2 -17 -8 0 -18 6 -20 13 -3 6 -3 -5 -1 -27 4 -33 2
-37 -13 -32 -16 6 -16 6 0 -12 19 -20 23 -37 7 -27 -5 3 -10 1 -10 -4 0 -6 5
-11 12 -11 6 0 4 -7 -5 -18 -16 -18 -15 -18 12 -14 25 3 28 1 27 -20 -1 -20 4
-23 38 -26 30 -3 36 -6 25 -14 -11 -7 -9 -9 8 -5 15 3 24 -1 28 -13 4 -13 15
-18 40 -17 31 1 34 3 29 24 -4 15 -2 23 6 23 7 0 10 -7 7 -15 -4 -8 -2 -17 4
-21 6 -3 8 -12 6 -18 -3 -7 -1 -19 3 -26 7 -11 11 -11 24 -1 16 13 21 6 17
-21 0 -5 12 -8 29 -8 22 0 30 -5 31 -17 0 -15 2 -15 9 2 7 16 9 14 9 -15 1
-26 -2 -31 -9 -20 -7 12 -12 12 -22 2 -9 -9 -9 -12 2 -12 11 0 12 -2 3 -8 -7
-4 -10 -17 -7 -29 5 -18 11 -21 34 -17 32 7 41 -3 29 -31 -7 -19 -8 -19 -8 3
-1 26 -13 28 -35 6 -11 -10 -16 -11 -16 -3 0 7 -2 10 -5 7 -3 -3 -1 -17 4 -31
9 -23 7 -28 -19 -40 -25 -13 -28 -13 -23 1 4 9 2 13 -4 9 -6 -4 -14 1 -17 10
-6 15 -9 15 -17 3 -9 -12 -10 -12 -5 2 3 10 1 18 -5 18 -6 0 -7 5 -3 12 4 7 3
8 -4 4 -22 -13 -52 -15 -52 -3 0 7 -5 4 -11 -6 -9 -15 -13 -16 -27 -5 -15 12
-16 11 -3 -4 11 -15 11 -19 -2 -24 -26 -10 -44 -89 -21 -98 8 -3 14 -1 14 4 0
6 -5 10 -11 10 -5 0 -8 4 -4 10 10 16 34 0 27 -18 -5 -15 -4 -16 13 -2 18 15
19 14 2 -10 -23 -34 -21 -41 8 -30 14 5 26 6 26 2 1 -4 2 -14 3 -22 2 -22 36
-25 36 -3 1 17 1 17 11 0 10 -18 11 -18 26 0 10 13 16 15 19 6 7 -16 44 -17
44 -2 0 5 -4 7 -10 4 -13 -8 -13 5 0 25 9 13 10 13 10 0 1 -8 6 -4 11 9 7 18
6 27 -3 33 -8 6 -2 8 17 6 26 -3 30 0 28 20 -2 16 1 21 10 16 6 -4 4 1 -5 12
-19 22 -8 44 22 44 13 0 13 2 0 11 -12 9 -11 10 7 6 19 -4 23 0 29 28 4 23 10
32 20 28 8 -3 12 -9 9 -13 -3 -5 6 -21 20 -36 14 -15 26 -36 26 -48 5 -82 4
-133 -4 -143 -5 -7 -6 -13 -1 -13 5 0 2 -5 -6 -10 -11 -7 -11 -10 -2 -10 10 0
10 -5 1 -22 -14 -26 -14 -29 -1 -37 5 -3 13 -24 18 -45 9 -36 34 -63 34 -36 0
6 -4 8 -10 5 -5 -3 -10 -1 -10 4 0 14 2 14 35 -3 23 -12 24 -15 8 -19 -13 -3
-10 -5 9 -6 21 -1 25 3 21 19 -3 11 -1 20 5 20 5 0 9 -8 8 -17 -1 -15 9 -19
52 -21 42 -2 52 0 46 10 -6 9 -3 9 10 -1 15 -12 17 -12 14 0 -2 8 4 14 12 14
8 0 14 -5 13 -11 -1 -6 12 -11 30 -12 17 0 26 2 20 6 -9 5 -6 12 9 21 18 11
20 11 15 -3 -3 -8 -2 -18 2 -20 10 -7 9 50 -2 60 -4 4 -7 0 -7 -9 0 -15 -28
-37 -48 -37 -5 0 -9 7 -9 15 0 9 6 14 14 11 8 -3 11 -1 8 4 -3 6 -15 10 -26
10 -13 0 -18 -4 -13 -12 4 -7 3 -8 -5 -4 -7 5 -9 16 -5 28 4 15 3 18 -6 13 -8
-5 -11 -4 -6 3 3 5 0 12 -6 15 -7 2 -1 4 15 4 15 0 30 -3 33 -8 3 -5 -2 -6
-11 -3 -11 5 -14 2 -9 -10 7 -17 54 -23 54 -6 0 5 7 7 15 4 11 -4 13 -2 9 9
-4 12 -1 14 15 10 11 -3 18 -9 15 -14 -3 -5 3 -9 13 -10 10 0 13 -3 6 -5 -17
-7 -4 -34 13 -27 10 4 12 0 8 -11 -3 -9 -1 -16 6 -16 6 0 8 -4 5 -10 -3 -5 3
-10 15 -10 14 0 19 4 14 13 -6 9 -4 9 7 0 7 -7 28 -13 47 -13 27 0 33 3 28 16
-4 10 -2 14 6 11 7 -2 12 -10 10 -16 -1 -6 12 -11 34 -11 21 0 33 4 29 10 -3
6 -1 10 4 10 6 0 11 -5 11 -10 0 -7 35 -10 94 -9 91 1 94 2 99 25 4 24 3 24
-14 8 -11 -9 -19 -12 -19 -6 0 6 5 14 11 18 7 4 9 24 5 50 -5 44 5 59 20 27 4
-10 7 -20 6 -23 0 -3 12 -7 27 -8 l28 -2 -17 77 c-10 43 -22 96 -29 118 -6 22
-11 53 -11 69 0 21 -4 27 -15 22 -10 -3 -15 1 -16 12 0 10 -3 12 -6 5 -2 -7
-9 -13 -14 -13 -6 0 -5 9 2 21 9 17 8 20 -2 17 -18 -6 -27 -45 -22 -93 4 -39
4 -40 -28 -41 -35 -1 -70 20 -46 29 15 5 4 18 -20 21 -10 2 -17 6 -15 9 1 4 2
14 2 23 0 9 5 12 13 8 10 -6 10 -4 0 7 -18 18 -16 32 2 25 9 -3 15 0 15 10 0
8 -4 13 -9 9 -5 -3 -12 -1 -16 5 -3 5 2 10 12 10 16 1 16 2 2 13 -8 7 -15 22
-15 34 0 15 4 19 12 12 8 -7 12 -2 12 17 0 15 -4 21 -8 14 -5 -8 -9 -5 -12 8
-4 16 -1 19 16 15 21 -4 21 -4 2 11 -11 9 -15 16 -9 16 7 0 10 30 10 82 0 53
4 83 12 86 6 2 11 8 11 13 0 6 -7 6 -19 0 -18 -10 -31 -6 -31 11 0 5 4 7 9 4
15 -10 43 6 37 20 -3 7 -1 16 4 19 6 3 6 15 0 29 -5 13 -6 26 -3 30 3 3 2 13
-2 23 -10 23 -17 62 -17 91 0 12 -3 22 -7 22 -6 0 -11 34 -15 88 0 12 -4 22
-8 22 -4 0 -5 7 -2 15 4 8 1 15 -5 15 -9 0 -9 5 0 21 8 16 8 20 0 14 -8 -5
-10 1 -5 20 3 14 2 25 -2 24 -5 -1 -18 0 -29 1 -15 2 -12 4 10 10 23 6 25 8 8
9 -12 0 -25 6 -28 11 -4 6 -11 8 -16 5 -5 -4 -9 -1 -9 4 0 6 11 11 25 11 15 0
24 5 22 13 -1 6 4 11 11 10 6 -2 12 6 12 17 0 11 7 20 15 20 21 0 19 20 -2 21
-10 1 -21 1 -25 0 -5 0 -8 3 -8 8 0 5 -10 12 -22 14 -20 4 -20 4 4 6 15 0 30
5 33 11 3 6 -1 7 -10 4 -11 -5 -14 -2 -9 10 4 10 1 16 -7 16 -11 0 -11 3 1 10
10 6 11 10 3 10 -21 0 -15 27 7 33 16 4 20 13 20 44 0 26 -3 34 -9 24 -5 -8
-16 -11 -27 -7 -10 4 -21 1 -25 -6 -5 -8 -8 -5 -6 9 0 12 4 21 7 21 17 -1 15
5 -12 34 -27 29 -28 33 -11 39 21 8 33 3 33 -14 0 -8 -3 -8 -9 2 -5 7 -11 9
-14 5 -3 -5 2 -15 10 -23 12 -11 15 -10 20 8 5 22 23 29 23 10 0 -5 6 -7 13
-3 7 5 7 1 -2 -10 -13 -16 -12 -17 12 -11 20 5 27 3 27 -7 0 -8 16 -23 35 -34
19 -10 35 -22 35 -26 0 -3 9 -10 20 -13 11 -3 26 -12 33 -18 21 -19 59 -39 64
-33 3 2 -13 23 -36 45 -23 22 -41 45 -41 51 0 5 -5 10 -10 10 -16 0 -48 82
-54 141 -17 141 -11 274 13 304 5 5 12 25 16 44 9 42 55 144 69 153 6 4 7 8 2
8 -5 0 -3 7 4 15 7 8 9 15 4 15 -4 0 3 12 17 26 13 14 23 27 22 30 -1 2 6 24
17 50 16 37 21 73 23 184 1 96 -2 143 -10 151 -6 6 -9 17 -7 24 3 7 -2 15 -10
18 -10 4 -14 0 -11 -14z m-282 -1908 c20 -8 23 -15 20 -35 -4 -20 -2 -25 9
-21 8 3 21 -1 28 -10 11 -13 9 -15 -9 -15 -12 0 -19 -4 -16 -10 3 -5 15 -10
26 -10 26 0 24 -10 -8 -35 -19 -16 -22 -22 -10 -22 10 0 17 4 17 9 0 4 4 8 9
8 17 0 -1 -40 -18 -40 -13 -1 -13 -3 4 -16 20 -15 20 -16 -8 -36 -16 -11 -25
-24 -20 -27 5 -3 0 -15 -11 -25 -15 -15 -18 -16 -13 -4 4 13 1 16 -19 12 -16
-3 -27 1 -30 11 -5 11 -10 13 -19 5 -10 -8 -15 -6 -20 9 -7 24 -21 27 -28 9
-3 -7 -5 1 -5 17 0 17 2 24 5 18 2 -7 14 -13 26 -13 20 1 20 2 5 11 -22 12
-23 35 -3 43 8 3 15 10 15 16 0 6 -4 9 -9 5 -5 -3 -13 0 -16 6 -5 6 0 10 11 9
35 -4 39 0 39 37 0 26 4 38 14 38 18 0 27 25 9 25 -10 0 -9 3 2 10 10 6 11 10
3 10 -7 0 -13 5 -13 10 0 12 3 12 33 1z m-313 -82 c0 -5 6 -7 13 -3 10 6 10 4
0 -7 -18 -19 -16 -40 3 -32 13 5 13 7 2 14 -7 5 -10 9 -6 9 3 0 14 3 24 7 10
3 15 2 12 -3 -9 -14 13 -29 47 -32 17 -2 39 -12 49 -22 19 -19 5 -23 -21 -7
-8 5 -13 3 -13 -3 0 -7 -7 -7 -22 1 -15 8 -23 8 -26 1 -1 -5 -11 -8 -21 -5
-10 3 -22 0 -25 -6 -4 -6 -18 -8 -32 -5 -21 5 -25 3 -22 -12 2 -14 -4 -19 -32
-20 -26 -2 -30 -1 -15 5 11 5 27 6 35 3 8 -3 6 2 -5 11 -11 9 -21 11 -23 6 -5
-13 -32 -11 -32 2 0 5 -5 7 -10 4 -14 -9 -40 19 -39 42 0 17 1 16 8 -1 5 -14
10 -16 15 -8 4 7 4 17 0 24 -4 7 -3 8 4 4 7 -4 12 -1 12 6 1 7 7 2 15 -12 l14
-25 1 28 c0 17 4 26 10 22 6 -4 8 -16 5 -28 -5 -17 -4 -19 4 -7 6 8 11 23 11
33 0 19 8 21 30 6 11 -8 12 -12 3 -16 -17 -6 -16 -20 1 -20 10 0 13 9 11 29
-2 15 0 28 5 28 6 0 10 -5 10 -11z m5 -399 c3 -5 13 -10 21 -10 8 0 12 5 9 10
-9 15 4 12 21 -4 7 -8 22 -12 33 -9 13 3 21 -2 26 -16 3 -12 11 -21 16 -21 6
0 7 5 4 10 -3 6 1 10 10 10 11 0 15 -5 12 -14 -3 -8 1 -20 9 -26 10 -9 14 -9
14 -1 0 6 8 11 18 10 10 0 12 -3 5 -6 -7 -2 -13 -9 -13 -15 0 -6 8 -7 17 -4 9
4 19 2 23 -4 4 -6 33 -13 66 -16 32 -3 61 -10 62 -15 2 -5 8 -9 13 -9 6 0 7 5
4 10 -3 6 -1 10 4 10 6 0 11 -7 11 -15 0 -16 20 -16 31 -1 4 5 10 -1 14 -13 3
-11 13 -21 21 -21 8 0 12 -4 9 -10 -3 -5 2 -10 12 -11 14 0 15 -2 3 -7 -8 -4
-16 -18 -18 -31 -2 -15 0 -21 7 -17 6 4 11 0 11 -10 0 -15 -2 -16 -17 -2 -33
28 -41 29 -35 6 3 -13 1 -19 -6 -15 -5 4 -13 1 -15 -5 -4 -10 -8 -9 -16 2 -9
12 -11 12 -17 -3 -3 -9 -10 -15 -14 -12 -18 11 -40 -8 -36 -31 3 -13 0 -24 -5
-24 -5 0 -9 14 -9 30 0 20 -5 30 -15 30 -9 0 -12 -6 -8 -16 4 -12 2 -15 -8
-12 -8 3 -13 12 -11 22 3 18 -9 21 -24 6 -7 -7 -17 -5 -30 6 -10 8 -13 13 -6
9 6 -3 12 -1 12 5 0 6 -10 8 -26 4 -23 -6 -25 -4 -20 14 4 11 2 23 -4 27 -5 3
-10 1 -10 -4 0 -6 -7 -11 -15 -11 -8 0 -15 7 -15 15 0 8 -3 14 -7 13 -19 -4
-41 15 -36 29 5 13 8 11 16 -8 9 -23 9 -23 17 -4 6 16 1 23 -28 38 -57 28
-105 38 -113 25 -6 -9 -11 -9 -22 1 -16 12 -33 -1 -23 -17 3 -5 -1 -9 -8 -9
-8 0 -12 6 -9 13 5 14 -13 37 -37 47 -11 4 -10 6 4 6 14 1 17 6 13 22 -4 15
-3 19 4 12 17 -17 79 6 79 29 0 19 15 24 25 8z"/>
<path d="M4808 3235 c-3 -3 -16 -8 -28 -10 -13 -2 -32 -12 -43 -22 -14 -13
-18 -13 -12 -3 8 13 7 13 -11 0 -10 -8 -25 -21 -32 -27 -7 -7 -22 -13 -32 -13
-13 0 -17 -5 -14 -15 4 -10 -3 -18 -20 -25 -14 -5 -26 -12 -26 -15 0 -4 5 -3
12 1 8 5 9 2 5 -10 -4 -10 -7 -19 -7 -22 0 -2 -8 0 -17 3 -15 6 -16 5 -3 -9 8
-9 20 -13 25 -10 6 3 7 2 3 -3 -4 -4 -3 -14 4 -22 8 -11 7 -12 -6 -7 -19 7
-22 -12 -3 -19 9 -4 8 -8 -3 -16 -13 -9 -13 -12 -1 -20 9 -6 11 -16 7 -27 -6
-16 -8 -16 -16 -4 -8 13 -10 12 -10 -3 0 -14 6 -18 27 -15 14 2 29 9 31 17 3
8 0 11 -6 8 -14 -10 -21 27 -8 45 6 8 17 17 25 19 11 4 10 8 -3 22 -16 16 -16
17 3 17 15 0 21 -6 21 -21 0 -11 4 -17 10 -14 6 4 8 15 5 26 -5 15 -3 17 10
13 10 -4 15 -14 12 -25 -3 -12 0 -19 10 -19 8 0 13 6 10 13 -3 7 5 13 21 14
17 1 21 -2 12 -7 -23 -14 -20 -50 4 -49 38 1 96 -18 96 -32 0 -5 4 -9 10 -9 5
0 6 8 3 17 -5 12 -2 15 10 10 9 -3 19 -2 22 3 4 6 17 7 31 4 13 -3 24 -2 24 4
0 5 9 12 21 15 11 3 19 11 18 19 -3 27 1 37 15 32 8 -3 17 0 22 7 5 8 3 10 -5
4 -7 -4 -5 4 4 19 10 14 23 26 31 26 14 0 41 40 27 40 -4 0 0 5 10 11 10 6 21
8 24 5 4 -3 1 -6 -5 -6 -7 0 -12 -7 -12 -15 0 -12 3 -13 19 -3 11 7 18 15 15
19 -2 4 3 14 11 22 8 9 15 20 15 25 0 13 -30 11 -30 -2 0 -6 -5 -4 -10 5 -6
11 -26 16 -63 18 -29 1 -80 6 -112 11 -66 11 -139 13 -147 5z"/>
<path d="M5946 3185 c-3 -9 -10 -13 -16 -10 -5 3 -9 -2 -7 -12 1 -10 -2 -19
-8 -20 -5 -1 -9 5 -7 13 3 13 0 13 -18 2 -11 -7 -16 -14 -11 -16 5 -2 7 -12 4
-22 -3 -11 -10 -17 -17 -13 -8 4 -7 2 1 -7 13 -14 6 -39 -16 -58 -9 -8 -10
-11 -3 -7 19 10 15 -32 -5 -45 -15 -10 -15 -11 -1 -6 10 3 18 -2 21 -15 3 -10
1 -17 -4 -13 -24 14 5 -24 31 -41 22 -15 28 -25 24 -40 -4 -15 -3 -16 4 -6 8
11 10 11 15 0 4 -12 7 -12 18 0 12 12 12 13 0 6 -11 -6 -13 -4 -8 8 4 10 2 16
-5 14 -7 -1 -12 7 -12 18 -1 16 5 19 26 17 23 -3 26 0 23 20 -4 19 1 26 25 35
33 13 35 11 19 -19 -9 -16 -13 -18 -20 -7 -4 7 -11 11 -14 7 -3 -3 1 -13 10
-22 9 -9 12 -16 6 -16 -6 0 -11 -11 -11 -25 0 -14 5 -25 11 -25 5 0 7 4 4 10
-3 6 1 7 10 4 13 -5 15 -2 9 20 -3 14 -2 26 2 26 5 0 10 11 10 24 2 24 39 70
52 63 12 -7 54 12 48 22 -3 5 1 14 9 21 12 10 15 10 15 0 0 -7 8 -10 20 -7 11
3 20 1 20 -3 0 -5 -10 -11 -22 -13 -20 -4 -19 -4 5 -6 15 0 27 -5 27 -11 0 -5
9 -10 20 -10 25 0 25 -5 -1 -41 -15 -21 -26 -28 -40 -24 -20 7 -24 -2 -10 -24
7 -11 13 -9 30 8 11 11 21 17 21 11 0 -5 7 -10 16 -10 13 0 15 7 11 30 -7 34
-3 37 19 15 9 -8 11 -15 6 -15 -5 0 -9 -6 -9 -14 0 -8 6 -12 14 -9 7 3 13 11
13 19 0 8 11 14 28 15 l27 1 -30 7 c-17 4 -40 13 -50 19 -19 11 -19 11 5 12
l25 1 -27 15 c-16 8 -28 21 -28 28 0 16 -57 39 -73 29 -6 -4 -8 0 -4 10 3 10
2 17 -2 17 -5 0 -12 -7 -15 -16 -3 -8 -11 -12 -17 -9 -6 4 -8 13 -5 21 3 8 0
14 -7 13 -6 -1 -27 2 -45 6 -24 6 -31 12 -27 23 4 12 3 13 -10 2 -13 -10 -19
-10 -33 4 -10 9 -22 13 -26 9 -4 -5 -13 0 -21 10 -11 16 -13 16 -19 2z"/>
<path d="M4275 2991 c-23 -7 -32 -30 -12 -32 6 -1 0 -4 -14 -8 l-26 -6 24 -25
c19 -21 23 -22 23 -7 0 10 -4 15 -10 12 -5 -3 -10 -2 -10 3 0 21 33 22 52 2
19 -20 19 -21 -14 -34 -28 -12 -34 -12 -45 3 -11 13 -12 13 -8 1 4 -11 -1 -16
-15 -16 -11 0 -20 5 -20 12 0 15 -72 12 -78 -4 -5 -16 40 -16 57 1 10 10 11 9
6 -5 -5 -13 -2 -18 9 -18 9 0 16 -5 16 -11 0 -5 -5 -7 -12 -3 -7 4 -8 3 -4 -4
11 -19 26 -14 26 8 0 14 5 18 16 13 13 -5 13 -7 2 -14 -11 -7 -10 -11 2 -18 8
-6 17 -6 20 -2 14 22 86 -20 73 -43 -3 -6 0 -5 8 2 12 11 12 14 0 21 -9 6 -10
11 -2 15 6 4 15 5 20 2 5 -3 11 0 14 8 4 10 -3 12 -29 9 -27 -3 -34 0 -34 14
0 15 -2 16 -10 3 -6 -9 -10 -10 -10 -3 0 7 10 17 21 24 12 6 19 7 16 2 -3 -5
-2 -15 4 -23 6 -11 9 -11 9 -2 0 8 8 10 23 7 12 -3 29 -1 37 5 13 9 13 11 0
20 -19 12 -33 13 -26 1 12 -18 -28 -4 -41 15 -10 16 -10 24 2 47 7 14 10 29 6
32 -12 7 -21 -5 -21 -27 0 -21 -13 -23 -29 -4 -9 11 -9 15 1 19 21 7 5 14 -17
8z"/>
<path d="M2808 2830 c-1 -5 -36 -11 -77 -13 -44 -1 -76 -8 -78 -14 -3 -7 4
-10 19 -6 13 3 19 1 13 -4 -19 -16 -15 -33 10 -39 14 -3 25 -11 25 -16 0 -6 6
-8 14 -5 20 8 28 -4 13 -21 -10 -13 -9 -15 10 -10 15 4 20 2 17 -7 -6 -14 -44
-8 -44 6 0 5 -4 9 -10 9 -5 0 -10 -8 -10 -19 0 -10 6 -19 13 -18 43 1 57 -4
57 -23 0 -11 5 -20 10 -20 6 0 10 8 8 18 -2 14 3 16 31 14 19 -2 37 2 41 8 5
8 11 0 18 -19 12 -34 28 -43 19 -12 -3 12 1 22 10 25 23 9 29 7 13 -5 -12 -8
-9 -10 13 -6 15 2 27 0 27 -4 0 -5 -6 -9 -12 -9 -9 0 -8 -4 2 -10 22 -14 33
-12 26 6 -6 17 6 12 37 -14 16 -14 17 -14 11 1 -5 13 -2 16 10 11 9 -3 16 -10
16 -15 0 -5 9 -4 20 3 17 11 22 10 29 0 7 -11 11 -10 24 2 17 18 33 5 21 -16
-4 -7 2 -5 13 5 14 12 23 15 28 8 3 -6 0 -11 -7 -11 -10 0 -10 -2 1 -9 7 -5
11 -13 7 -19 -3 -6 -1 -14 5 -18 7 -4 9 -3 5 4 -3 6 -2 13 4 17 6 4 7 12 3 18
-3 7 3 4 14 -5 11 -10 27 -18 35 -18 14 0 24 -17 42 -74 4 -11 12 -16 22 -12
9 3 12 2 9 -5 -8 -12 14 -41 26 -33 5 3 23 -9 40 -25 17 -17 35 -28 41 -25 7
4 8 2 4 -4 -4 -7 -2 -12 3 -12 6 0 11 -7 11 -15 0 -8 5 -15 11 -15 8 0 7 -6
-2 -17 -8 -9 -9 -14 -3 -10 13 8 24 -13 24 -45 0 -17 -6 -19 -55 -17 -30 1
-57 0 -60 -3 -3 -3 -23 -4 -45 -2 -23 2 -40 -1 -40 -7 0 -6 -9 -8 -20 -4 -16
5 -23 0 -33 -24 -7 -16 -29 -43 -50 -59 -30 -24 -34 -32 -23 -41 11 -9 20 -6
42 14 16 15 22 23 14 19 -19 -11 -44 -15 -35 -6 4 4 10 7 13 8 4 0 15 4 24 8
9 4 22 5 28 1 5 -3 10 1 10 9 0 9 5 16 10 16 6 0 10 -6 10 -12 0 -10 3 -9 9 1
5 7 14 10 20 7 6 -4 11 -3 11 1 0 8 50 12 173 14 78 2 39 19 -46 21 -42 1 -82
5 -89 10 -8 5 27 7 84 6 53 -2 94 0 92 4 -2 4 3 11 12 16 11 6 14 14 8 23 -9
15 -13 75 -14 218 0 81 -3 97 -20 113 -20 18 -20 18 -20 -1 0 -15 5 -19 18
-15 14 5 15 4 2 -5 -11 -8 -18 -7 -25 2 -12 16 -48 10 -39 -6 5 -9 4 -9 -6 0
-14 13 -4 37 11 27 6 -3 7 4 3 20 -4 19 -2 28 10 32 9 3 16 10 16 16 0 5 -4 7
-9 3 -13 -8 -10 38 4 47 6 5 3 8 -6 8 -9 0 -19 7 -23 15 -7 19 -49 19 -150 0
-134 -26 -259 -22 -371 10 -27 8 -66 18 -85 23 -25 6 -34 14 -32 25 3 18 -4
23 -10 7z"/>
<path d="M4323 1183 c44 -7 26 -27 -24 -28 -24 0 -50 -4 -58 -9 -10 -6 -12 -6
-7 2 11 18 -19 15 -34 -3 -7 -8 -21 -15 -31 -15 -11 0 -19 -6 -19 -14 0 -16
28 -41 37 -33 3 4 13 2 23 -3 10 -5 20 -6 24 -3 3 3 21 8 38 10 18 1 44 5 58
7 14 3 19 3 13 0 -7 -3 -13 -10 -13 -16 0 -7 5 -6 14 1 7 6 22 8 32 5 17 -6
17 -5 4 7 -8 8 -13 13 -11 12 2 -1 13 2 24 8 14 8 18 8 13 0 -4 -6 -2 -11 4
-11 6 0 8 -4 5 -10 -3 -5 -2 -10 3 -10 5 0 12 10 16 23 5 18 8 19 16 7 8 -13
12 -13 27 3 12 12 14 20 7 25 -6 4 -10 16 -8 27 3 20 3 20 -12 1 -8 -11 -14
-16 -14 -10 0 5 -5 2 -10 -6 -6 -10 -10 -11 -10 -2 0 6 -7 12 -15 12 -8 0 -15
7 -15 15 0 8 -8 15 -17 15 -15 0 -16 -2 -3 -10 13 -9 13 -11 0 -20 -11 -7 -16
-5 -18 10 -3 16 -11 20 -35 19 -31 -2 -31 -2 -4 -6z"/>
<path d="M5495 927 c-5 -19 -11 -22 -46 -19 -22 2 -39 0 -39 -6 0 -14 25 -22
69 -22 20 0 42 -5 49 -12 7 -7 12 -8 12 -4 0 5 7 3 15 -4 8 -7 12 -17 9 -22
-4 -6 2 -8 15 -3 14 4 23 2 27 -8 4 -11 27 -15 100 -16 84 -1 94 0 95 16 0 16
1 15 9 -2 6 -13 9 -15 9 -5 1 13 2 13 11 0 8 -11 9 -3 6 28 -2 24 -8 47 -12
50 -4 4 -4 -1 -1 -10 5 -13 1 -18 -13 -18 -10 0 -21 -4 -24 -9 -3 -5 -15 -7
-26 -4 -11 3 -20 0 -20 -6 0 -19 -20 -12 -20 7 -1 16 -1 16 -14 0 -17 -23 -26
-23 -26 -1 0 13 -3 14 -12 5 -15 -15 -28 -15 -28 -1 0 6 -7 18 -16 27 -15 15
-16 14 -10 -8 6 -23 6 -23 -5 -5 -7 11 -13 21 -15 23 -1 2 -12 -2 -24 -8 -20
-11 -21 -10 -9 12 6 13 8 20 4 16 -5 -4 -15 -2 -23 5 -13 10 -15 9 -9 -12 5
-22 5 -23 -12 -5 -10 11 -16 25 -13 32 2 6 1 12 -2 12 -3 0 -8 -10 -11 -23z"/>
</g>
</svg>
