<svg width="124" height="87" viewBox="0 0 124 87" fill="none" xmlns="http://www.w3.org/2000/svg">
<rect y="5" width="124" height="82" rx="10" fill="white"/>
<rect y="5" width="58" height="82" rx="10" fill="black"/>
<path d="M10.1 48V13H12.65V48H10.1ZM39.7961 48.25C37.1628 48.25 34.7294 47.8167 32.4961 46.95C30.2628 46.05 28.3128 44.8 26.6461 43.2C25.0128 41.6 23.7461 39.7333 22.8461 37.6C21.9461 35.4333 21.4961 33.0667 21.4961 30.5C21.4961 27.9333 21.9461 25.5833 22.8461 23.45C23.7461 21.2833 25.0294 19.4 26.6961 17.8C28.3628 16.2 30.2961 14.9667 32.4961 14.1C34.7294 13.2 37.1794 12.75 39.8461 12.75C42.3794 12.75 44.7294 13.15 46.8961 13.95C49.0628 14.75 50.9128 15.95 52.4461 17.55L50.8461 19.25C49.3128 17.75 47.6294 16.6833 45.7961 16.05C43.9961 15.4167 42.0294 15.1 39.8961 15.1C37.6294 15.1 35.5294 15.4833 33.5961 16.25C31.6628 17.0167 29.9794 18.1 28.5461 19.5C27.1128 20.9 25.9961 22.5333 25.1961 24.4C24.4294 26.2667 24.0461 28.3 24.0461 30.5C24.0461 32.7 24.4294 34.7333 25.1961 36.6C25.9961 38.4667 27.1128 40.1 28.5461 41.5C29.9794 42.9 31.6628 43.9833 33.5961 44.75C35.5294 45.5167 37.6294 45.9 39.8961 45.9C41.9628 45.9 43.9128 45.5833 45.7461 44.95C47.6128 44.3167 49.3128 43.2667 50.8461 41.8L52.2961 43.75C50.7294 45.25 48.8461 46.3833 46.6461 47.15C44.4794 47.8833 42.1961 48.25 39.7961 48.25ZM49.8461 43.5V30.65H52.2961V43.75L49.8461 43.5Z" fill="white"/>
<path d="M16.19 78.56C14.2767 78.56 12.55 78.2567 11.01 77.65C9.47 77.02 8.18667 76.11 7.16 74.92L11.605 69.67C12.2583 70.4633 12.9 71.07 13.53 71.49C14.16 71.8867 14.8133 72.085 15.49 72.085C17.2633 72.085 18.15 71.07 18.15 69.04V59.73H9.82V53.5H26.305V68.55C26.305 71.91 25.4417 74.4183 23.715 76.075C21.9883 77.7317 19.48 78.56 16.19 78.56ZM40.0677 78.56C36.311 78.56 33.3827 77.545 31.2827 75.515C29.1827 73.485 28.1327 70.6383 28.1327 66.975V53.5H36.3927V66.73C36.3927 68.5967 36.731 69.9267 37.4077 70.72C38.0843 71.49 38.9943 71.875 40.1377 71.875C41.3043 71.875 42.2143 71.49 42.8677 70.72C43.5443 69.9267 43.8827 68.5967 43.8827 66.73V53.5H52.0027V66.975C52.0027 70.6383 50.9527 73.485 48.8527 75.515C46.7527 77.545 43.8243 78.56 40.0677 78.56ZM54.0389 78V53.5H60.8289L73.2889 68.41H70.1389V53.5H78.1889V78H71.3989L58.9389 63.09H62.0889V78H54.0389ZM80.4188 78V53.5H88.6788V78H80.4188ZM103.75 78.56C101.767 78.56 99.9235 78.245 98.2202 77.615C96.5402 76.985 95.0818 76.0983 93.8452 74.955C92.6085 73.7883 91.6402 72.4233 90.9402 70.86C90.2635 69.2967 89.9252 67.5933 89.9252 65.75C89.9252 63.8833 90.2635 62.18 90.9402 60.64C91.6402 59.0767 92.6085 57.7233 93.8452 56.58C95.0818 55.4133 96.5402 54.515 98.2202 53.885C99.9235 53.255 101.767 52.94 103.75 52.94C105.757 52.94 107.6 53.255 109.28 53.885C110.96 54.515 112.418 55.4133 113.655 56.58C114.892 57.7233 115.848 59.0767 116.525 60.64C117.225 62.18 117.575 63.8833 117.575 65.75C117.575 67.5933 117.225 69.2967 116.525 70.86C115.848 72.4233 114.892 73.7883 113.655 74.955C112.418 76.0983 110.96 76.985 109.28 77.615C107.6 78.245 105.757 78.56 103.75 78.56ZM103.75 71.875C104.52 71.875 105.232 71.735 105.885 71.455C106.562 71.175 107.145 70.7783 107.635 70.265C108.148 69.7283 108.545 69.0867 108.825 68.34C109.105 67.57 109.245 66.7067 109.245 65.75C109.245 64.7933 109.105 63.9417 108.825 63.195C108.545 62.425 108.148 61.7833 107.635 61.27C107.145 60.7333 106.562 60.325 105.885 60.045C105.232 59.765 104.52 59.625 103.75 59.625C102.98 59.625 102.257 59.765 101.58 60.045C100.927 60.325 100.343 60.7333 99.8302 61.27C99.3402 61.7833 98.9552 62.425 98.6752 63.195C98.3952 63.9417 98.2552 64.7933 98.2552 65.75C98.2552 66.7067 98.3952 67.57 98.6752 68.34C98.9552 69.0867 99.3402 69.7283 99.8302 70.265C100.343 70.7783 100.927 71.175 101.58 71.455C102.257 71.735 102.98 71.875 103.75 71.875Z" fill="black"/>
<path d="M16.19 78.56C14.2767 78.56 12.55 78.2567 11.01 77.65C9.47 77.02 8.18667 76.11 7.16 74.92L11.605 69.67C12.2583 70.4633 12.9 71.07 13.53 71.49C14.16 71.8867 14.8133 72.085 15.49 72.085C17.2633 72.085 18.15 71.07 18.15 69.04V59.73H9.82V53.5H26.305V68.55C26.305 71.91 25.4417 74.4183 23.715 76.075C21.9883 77.7317 19.48 78.56 16.19 78.56ZM40.0677 78.56C36.311 78.56 33.3827 77.545 31.2827 75.515C29.1827 73.485 28.1327 70.6383 28.1327 66.975V53.5H36.3927V66.73C36.3927 68.5967 36.731 69.9267 37.4077 70.72C38.0843 71.49 38.9943 71.875 40.1377 71.875C41.3043 71.875 42.2143 71.49 42.8677 70.72C43.5443 69.9267 43.8827 68.5967 43.8827 66.73V53.5H52.0027V66.975C52.0027 70.6383 50.9527 73.485 48.8527 75.515C46.7527 77.545 43.8243 78.56 40.0677 78.56Z" fill="white"/>
<rect x="54" y="53.5" width="4" height="24.5" fill="white"/>
</svg>
