<svg width="1214" height="897" viewBox="0 0 1214 897" fill="none" xmlns="http://www.w3.org/2000/svg">
<rect x="11.0273" y="77" width="1202.97" height="794" rx="50" fill="white"/>
<rect x="11.0273" y="77" width="574.419" height="794" rx="50" fill="black"/>
<path d="M133.361 812.76C113.681 812.76 95.9214 809.64 80.0814 803.4C64.2414 796.92 51.0414 787.56 40.4814 775.32L86.2014 721.32C92.9214 729.48 99.5214 735.72 106.001 740.04C112.481 744.12 119.201 746.16 126.161 746.16C144.401 746.16 153.521 735.72 153.521 714.84V619.08H67.8414V555H237.401V709.8C237.401 744.36 228.521 770.16 210.761 787.2C193.001 804.24 167.201 812.76 133.361 812.76ZM378.96 812.76C340.32 812.76 310.2 802.32 288.6 781.44C267 760.56 256.2 731.28 256.2 693.6V555H341.16V691.08C341.16 710.28 344.64 723.96 351.6 732.12C358.56 740.04 367.92 744 379.68 744C391.68 744 401.04 740.04 407.76 732.12C414.72 723.96 418.2 710.28 418.2 691.08V555H501.72V693.6C501.72 731.28 490.92 760.56 469.32 781.44C447.72 802.32 417.6 812.76 378.96 812.76ZM522.665 807V555H592.505L720.665 708.36H688.265V555H771.065V807H701.225L573.065 653.64H605.465V807H522.665ZM794.001 807V555H878.961V807H794.001ZM1033.98 812.76C1013.58 812.76 994.62 809.52 977.1 803.04C959.82 796.56 944.82 787.44 932.1 775.68C919.38 763.68 909.42 749.64 902.22 733.56C895.26 717.48 891.78 699.96 891.78 681C891.78 661.8 895.26 644.28 902.22 628.44C909.42 612.36 919.38 598.44 932.1 586.68C944.82 574.68 959.82 565.44 977.1 558.96C994.62 552.48 1013.58 549.24 1033.98 549.24C1054.62 549.24 1073.58 552.48 1090.86 558.96C1108.14 565.44 1123.14 574.68 1135.86 586.68C1148.58 598.44 1158.42 612.36 1165.38 628.44C1172.58 644.28 1176.18 661.8 1176.18 681C1176.18 699.96 1172.58 717.48 1165.38 733.56C1158.42 749.64 1148.58 763.68 1135.86 775.68C1123.14 787.44 1108.14 796.56 1090.86 803.04C1073.58 809.52 1054.62 812.76 1033.98 812.76ZM1033.98 744C1041.9 744 1049.22 742.56 1055.94 739.68C1062.9 736.8 1068.9 732.72 1073.94 727.44C1079.22 721.92 1083.3 715.32 1086.18 707.64C1089.06 699.72 1090.5 690.84 1090.5 681C1090.5 671.16 1089.06 662.4 1086.18 654.72C1083.3 646.8 1079.22 640.2 1073.94 634.92C1068.9 629.4 1062.9 625.2 1055.94 622.32C1049.22 619.44 1041.9 618 1033.98 618C1026.06 618 1018.62 619.44 1011.66 622.32C1004.94 625.2 998.94 629.4 993.66 634.92C988.62 640.2 984.66 646.8 981.78 654.72C978.9 662.4 977.46 671.16 977.46 681C977.46 690.84 978.9 699.72 981.78 707.64C984.66 715.32 988.62 721.92 993.66 727.44C998.94 732.72 1004.94 736.8 1011.66 739.68C1018.62 742.56 1026.06 744 1033.98 744Z" fill="black"/>
<path d="M133.361 812.76C113.681 812.76 95.9214 809.64 80.0814 803.4C64.2414 796.92 51.0414 787.56 40.4814 775.32L86.2014 721.32C92.9214 729.48 99.5214 735.72 106.001 740.04C112.481 744.12 119.201 746.16 126.161 746.16C144.401 746.16 153.521 735.72 153.521 714.84V619.08H67.8414V555H237.401V709.8C237.401 744.36 228.521 770.16 210.761 787.2C193.001 804.24 167.201 812.76 133.361 812.76ZM378.96 812.76C340.32 812.76 310.2 802.32 288.6 781.44C267 760.56 256.2 731.28 256.2 693.6V555H341.16V691.08C341.16 710.28 344.64 723.96 351.6 732.12C358.56 740.04 367.92 744 379.68 744C391.68 744 401.04 740.04 407.76 732.12C414.72 723.96 418.2 710.28 418.2 691.08V555H501.72V693.6C501.72 731.28 490.92 760.56 469.32 781.44C447.72 802.32 417.6 812.76 378.96 812.76Z" fill="white"/>
<path d="M67.1 532V147H95.15V532H67.1ZM393.757 534.75C364.79 534.75 338.024 529.983 313.457 520.45C288.89 510.55 267.44 496.8 249.107 479.2C231.14 461.6 217.207 441.067 207.307 417.6C197.407 393.767 192.457 367.733 192.457 339.5C192.457 311.267 197.407 285.417 207.307 261.95C217.207 238.117 231.324 217.4 249.657 199.8C267.99 182.2 289.257 168.633 313.457 159.1C338.024 149.2 364.974 144.25 394.307 144.25C422.174 144.25 448.024 148.65 471.857 157.45C495.69 166.25 516.04 179.45 532.907 197.05L515.307 215.75C498.44 199.25 479.924 187.517 459.757 180.55C439.957 173.583 418.324 170.1 394.857 170.1C369.924 170.1 346.824 174.317 325.557 182.75C304.29 191.183 285.774 203.1 270.007 218.5C254.24 233.9 241.957 251.867 233.157 272.4C224.724 292.933 220.507 315.3 220.507 339.5C220.507 363.7 224.724 386.067 233.157 406.6C241.957 427.133 254.24 445.1 270.007 460.5C285.774 475.9 304.29 487.817 325.557 496.25C346.824 504.683 369.924 508.9 394.857 508.9C417.59 508.9 439.04 505.417 459.207 498.45C479.74 491.483 498.44 479.933 515.307 463.8L531.257 485.25C514.024 501.75 493.307 514.217 469.107 522.65C445.274 530.717 420.157 534.75 393.757 534.75ZM504.307 482.5V341.15H531.257V485.25L504.307 482.5Z" fill="white"/>
<rect x="520" y="555" width="64" height="252" fill="white"/>
</svg>
