<svg width="2727" height="1203" viewBox="0 0 2727 1203" fill="none" xmlns="http://www.w3.org/2000/svg">
<circle cx="601.5" cy="601.5" r="601.5" fill="black"/>
<path d="M242.8 924V294H288.7V924H242.8ZM777.33 928.5C729.93 928.5 686.13 920.7 645.93 905.1C605.73 888.9 570.63 866.4 540.63 837.6C511.23 808.8 488.43 775.2 472.23 736.8C456.03 697.8 447.93 655.2 447.93 609C447.93 562.8 456.03 520.5 472.23 482.1C488.43 443.1 511.53 409.2 541.53 380.4C571.53 351.6 606.33 329.4 645.93 313.8C686.13 297.6 730.23 289.5 778.23 289.5C823.83 289.5 866.13 296.7 905.13 311.1C944.13 325.5 977.43 347.1 1005.03 375.9L976.23 406.5C948.63 379.5 918.33 360.3 885.33 348.9C852.93 337.5 817.53 331.8 779.13 331.8C738.33 331.8 700.53 338.7 665.73 352.5C630.93 366.3 600.63 385.8 574.83 411C549.03 436.2 528.93 465.6 514.53 499.2C500.73 532.8 493.83 569.4 493.83 609C493.83 648.6 500.73 685.2 514.53 718.8C528.93 752.4 549.03 781.8 574.83 807C600.63 832.2 630.93 851.7 665.73 865.5C700.53 879.3 738.33 886.2 779.13 886.2C816.33 886.2 851.43 880.5 884.43 869.1C918.03 857.7 948.63 838.8 976.23 812.4L1002.33 847.5C974.13 874.5 940.23 894.9 900.63 908.7C861.63 921.9 820.53 928.5 777.33 928.5ZM958.23 843V611.7H1002.33V847.5L958.23 843Z" fill="white"/>
<path d="M1337.3 931.2C1312.7 931.2 1290.5 927.3 1270.7 919.5C1250.9 911.4 1234.4 899.7 1221.2 884.4L1278.35 816.9C1286.75 827.1 1295 834.9 1303.1 840.3C1311.2 845.4 1319.6 847.95 1328.3 847.95C1351.1 847.95 1362.5 834.9 1362.5 808.8V689.1H1255.4V609H1467.35V802.5C1467.35 845.7 1456.25 877.95 1434.05 899.25C1411.85 920.55 1379.6 931.2 1337.3 931.2ZM1644.3 931.2C1596 931.2 1558.35 918.15 1531.35 892.05C1504.35 865.95 1490.85 829.35 1490.85 782.25V609H1597.05V779.1C1597.05 803.1 1601.4 820.2 1610.1 830.4C1618.8 840.3 1630.5 845.25 1645.2 845.25C1660.2 845.25 1671.9 840.3 1680.3 830.4C1689 820.2 1693.35 803.1 1693.35 779.1V609H1797.75V782.25C1797.75 829.35 1784.25 865.95 1757.25 892.05C1730.25 918.15 1692.6 931.2 1644.3 931.2ZM1823.93 924V609H1911.23L2071.43 800.7H2030.93V609H2134.43V924H2047.13L1886.93 732.3H1927.43V924H1823.93ZM2163.1 924V609H2269.3V924H2163.1ZM2463.07 931.2C2437.57 931.2 2413.87 927.15 2391.97 919.05C2370.37 910.95 2351.62 899.55 2335.72 884.85C2319.82 869.85 2307.37 852.3 2298.37 832.2C2289.67 812.1 2285.32 790.2 2285.32 766.5C2285.32 742.5 2289.67 720.6 2298.37 700.8C2307.37 680.7 2319.82 663.3 2335.72 648.6C2351.62 633.6 2370.37 622.05 2391.97 613.95C2413.87 605.85 2437.57 601.8 2463.07 601.8C2488.87 601.8 2512.57 605.85 2534.17 613.95C2555.77 622.05 2574.52 633.6 2590.42 648.6C2606.32 663.3 2618.62 680.7 2627.32 700.8C2636.32 720.6 2640.82 742.5 2640.82 766.5C2640.82 790.2 2636.32 812.1 2627.32 832.2C2618.62 852.3 2606.32 869.85 2590.42 884.85C2574.52 899.55 2555.77 910.95 2534.17 919.05C2512.57 927.15 2488.87 931.2 2463.07 931.2ZM2463.07 845.25C2472.97 845.25 2482.12 843.45 2490.52 839.85C2499.22 836.25 2506.72 831.15 2513.02 824.55C2519.62 817.65 2524.72 809.4 2528.32 799.8C2531.92 789.9 2533.72 778.8 2533.72 766.5C2533.72 754.2 2531.92 743.25 2528.32 733.65C2524.72 723.75 2519.62 715.5 2513.02 708.9C2506.72 702 2499.22 696.75 2490.52 693.15C2482.12 689.55 2472.97 687.75 2463.07 687.75C2453.17 687.75 2443.87 689.55 2435.17 693.15C2426.77 696.75 2419.27 702 2412.67 708.9C2406.37 715.5 2401.42 723.75 2397.82 733.65C2394.22 743.25 2392.42 754.2 2392.42 766.5C2392.42 778.8 2394.22 789.9 2397.82 799.8C2401.42 809.4 2406.37 817.65 2412.67 824.55C2419.27 831.15 2426.77 836.25 2435.17 839.85C2443.87 843.45 2453.17 845.25 2463.07 845.25Z" fill="black"/>
</svg>
