<svg width="1232" height="1203" viewBox="0 0 1232 1203" fill="none" xmlns="http://www.w3.org/2000/svg">
<circle cx="601.5" cy="601.5" r="601.5" fill="black"/>
<path d="M242.8 924V294H288.7V924H242.8ZM777.33 928.5C729.93 928.5 686.13 920.7 645.93 905.1C605.73 888.9 570.63 866.4 540.63 837.6C511.23 808.8 488.43 775.2 472.23 736.8C456.03 697.8 447.93 655.2 447.93 609C447.93 562.8 456.03 520.5 472.23 482.1C488.43 443.1 511.53 409.2 541.53 380.4C571.53 351.6 606.33 329.4 645.93 313.8C686.13 297.6 730.23 289.5 778.23 289.5C823.83 289.5 866.13 296.7 905.13 311.1C944.13 325.5 977.43 347.1 1005.03 375.9L976.23 406.5C948.63 379.5 918.33 360.3 885.33 348.9C852.93 337.5 817.53 331.8 779.13 331.8C738.33 331.8 700.53 338.7 665.73 352.5C630.93 366.3 600.63 385.8 574.83 411C549.03 436.2 528.93 465.6 514.53 499.2C500.73 532.8 493.83 569.4 493.83 609C493.83 648.6 500.73 685.2 514.53 718.8C528.93 752.4 549.03 781.8 574.83 807C600.63 832.2 630.93 851.7 665.73 865.5C700.53 879.3 738.33 886.2 779.13 886.2C816.33 886.2 851.43 880.5 884.43 869.1C918.03 857.7 948.63 838.8 976.23 812.4L1002.33 847.5C974.13 874.5 940.23 894.9 900.63 908.7C861.63 921.9 820.53 928.5 777.33 928.5ZM958.23 843V611.7H1002.33V847.5L958.23 843Z" fill="white"/>
</svg>
