<svg width="654" height="527" viewBox="0 0 654 527" fill="none" xmlns="http://www.w3.org/2000/svg">
<path d="M290.19 526C315.596 526 336.19 505.405 336.19 480C336.19 454.595 315.596 434 290.19 434C264.785 434 244.19 454.595 244.19 480C244.19 505.405 264.785 526 290.19 526Z" fill="black"/>
<path d="M285.263 0.00346415C213.371 0.511284 154.507 58.9333 153.486 130.82C153.476 131.484 153.472 136.15 153.472 142.254C153.473 151.204 157.028 159.786 163.356 166.115C169.684 172.443 178.267 175.999 187.216 176C191.653 175.999 196.045 175.124 200.143 173.425C204.241 171.725 207.964 169.235 211.1 166.097C214.235 162.958 216.721 159.232 218.416 155.132C220.111 151.032 220.981 146.639 220.977 142.202C220.974 138.05 220.972 135.176 220.972 135C220.97 123.89 223.859 112.971 229.357 103.316C234.855 93.6621 242.771 85.6052 252.327 79.9383C261.883 74.2713 272.75 71.1895 283.858 70.996C294.966 70.8026 305.933 73.5041 315.681 78.8349C325.428 84.1657 333.62 91.9421 339.451 101.399C345.281 110.856 348.55 121.668 348.934 132.771C349.319 143.875 346.806 154.887 341.644 164.725C336.482 174.563 328.848 182.887 319.492 188.879L319.504 188.894C319.504 188.894 271.476 219.813 256.833 262.229L256.845 262.232C254.271 270.921 252.966 279.937 252.972 289C252.972 292.725 253.191 325.321 253.615 351.778C253.763 360.906 257.493 369.611 264.002 376.013C270.51 382.415 279.275 386.002 288.405 386C292.992 386 297.534 385.093 301.77 383.33C306.005 381.568 309.85 378.986 313.084 375.732C316.318 372.478 318.876 368.617 320.612 364.371C322.348 360.124 323.227 355.577 323.199 350.989C323.051 326.76 322.972 298.548 322.972 296.5C322.972 270.455 348.097 244.505 368.736 227.583C392.501 208.096 409.604 181.54 416.473 151.584C417.993 145.416 418.831 139.1 418.972 132.75C418.972 115.236 415.506 97.8958 408.775 81.7274C402.044 65.559 392.179 50.8824 379.751 38.5432C367.322 26.2039 352.574 16.446 336.358 9.83156C320.141 3.21713 302.776 -0.123054 285.263 0.00346415Z" fill="black"/>
<path d="M560.449 204.996C577.017 204.996 590.449 191.565 590.449 174.996C590.449 158.428 577.017 144.996 560.449 144.996C543.88 144.996 530.449 158.428 530.449 174.996C530.449 191.565 543.88 204.996 560.449 204.996Z" fill="black"/>
<path d="M504.015 467.841L504.012 513.129H493.637L488.051 467.841H504.015Z" fill="white" stroke="black" stroke-width="2"/>
<path d="M483.995 510.626H507.639V525.513H469.109C469.109 523.558 469.494 521.622 470.242 519.816C470.99 518.01 472.086 516.369 473.469 514.986C474.851 513.604 476.492 512.507 478.299 511.759C480.105 511.011 482.041 510.626 483.995 510.626Z" fill="black"/>
<path d="M599.015 467.841L599.012 513.129H588.637L583.051 467.841H599.015Z" fill="white" stroke="black" stroke-width="2"/>
<path d="M578.995 510.626H602.639V525.513H564.109C564.109 523.558 564.494 521.622 565.242 519.816C565.99 518.01 567.086 516.369 568.469 514.986C569.851 513.604 571.492 512.507 573.299 511.759C575.105 511.011 577.041 510.626 578.995 510.626Z" fill="black"/>
<path d="M579.451 180.61C579.451 193.622 568.902 204.171 555.89 204.171C542.877 204.171 532.329 193.622 532.329 180.61C532.329 167.597 542.877 157.049 555.89 157.049C568.902 157.049 579.451 167.597 579.451 180.61Z" fill="white" stroke="black" stroke-width="2"/>
<path d="M570.529 284.405L581.519 259.155C584.188 253.232 584.953 246.626 583.708 240.25C582.463 233.873 579.27 228.04 574.569 223.555C573.603 222.601 572.578 221.709 571.499 220.885C566.076 216.643 559.394 214.331 552.509 214.315C547.88 214.333 543.309 215.35 539.109 217.295C538.749 217.455 538.399 217.625 538.039 217.795C537.349 218.125 536.669 218.485 536.009 218.855C531.704 221.327 528.04 224.776 525.313 228.924C522.586 233.072 520.872 237.803 520.309 242.735L515.459 283.375C514.239 286.565 470.719 401.765 485.939 489.715C486.101 490.655 486.559 491.517 487.246 492.178C487.933 492.838 488.814 493.261 489.759 493.385L505.189 495.485C506.316 495.64 507.459 495.361 508.388 494.706C509.318 494.051 509.965 493.068 510.199 491.955L536.089 368.545C536.25 367.779 536.664 367.088 537.264 366.584C537.864 366.08 538.616 365.792 539.399 365.765C540.182 365.739 540.951 365.976 541.584 366.438C542.217 366.9 542.676 367.561 542.889 368.315L579.469 498.095C579.729 499.038 580.292 499.87 581.071 500.462C581.849 501.055 582.801 501.376 583.779 501.375C584.071 501.374 584.362 501.347 584.649 501.295L603.499 497.665C604.594 497.461 605.574 496.854 606.246 495.964C606.918 495.074 607.232 493.965 607.129 492.855C604.359 461.965 589.639 307.235 570.529 284.405Z" fill="black"/>
<path d="M461.433 201.166L461.433 201.166L461.433 201.159C461.678 198.943 462.727 196.892 464.381 195.397C466.036 193.902 468.182 193.066 470.412 193.047C472.643 193.028 474.802 193.828 476.482 195.296C478.162 196.763 479.245 198.795 479.526 201.008L479.548 201.178L479.626 201.332L493.991 229.778L484.972 243.147L471.957 211.869L471.684 211.212L470.973 211.255C469.652 211.335 468.329 211.124 467.098 210.637C465.867 210.151 464.757 209.4 463.848 208.438C462.938 207.476 462.25 206.326 461.833 205.07C461.416 203.814 461.279 202.481 461.433 201.166Z" fill="white" stroke="black" stroke-width="2"/>
<path d="M554.528 317.626C555.988 317.452 557.391 316.959 558.64 316.183C559.889 315.408 560.953 314.368 561.756 313.137C562.559 311.906 563.083 310.513 563.29 309.058C563.497 307.602 563.383 306.119 562.954 304.713L591.84 283.674L574.449 277.162L549.686 298.139C547.371 299.015 545.457 300.709 544.308 302.902C543.159 305.094 542.854 307.631 543.451 310.033C544.048 312.435 545.505 314.535 547.547 315.934C549.588 317.334 552.072 317.936 554.528 317.626Z" fill="white"/>
<path d="M507.44 267.241C506.332 267.24 505.228 267.131 504.141 266.916C501.514 266.416 499.05 265.277 496.966 263.6C494.883 261.924 493.244 259.76 492.194 257.3L472.959 233.847C472.553 233.351 472.257 232.774 472.091 232.154C471.926 231.535 471.895 230.887 472 230.255C472.105 229.622 472.344 229.019 472.701 228.487C473.058 227.954 473.525 227.504 474.07 227.166L487.755 218.696C488.26 218.383 488.822 218.173 489.409 218.079C489.996 217.984 490.595 218.007 491.173 218.145C491.751 218.284 492.296 218.536 492.776 218.886C493.256 219.236 493.662 219.678 493.97 220.186L507.527 242.52L533.488 223.333C535.555 222.249 537.943 221.945 540.216 222.477C542.488 223.008 544.494 224.34 545.866 226.228C547.238 228.116 547.885 230.434 547.689 232.76C547.493 235.086 546.467 237.263 544.798 238.895L518.886 262.531C515.841 265.55 511.727 267.243 507.44 267.241Z" fill="black"/>
<path d="M577.59 302.514C577.554 302.514 577.519 302.514 577.484 302.513C576.853 302.497 576.232 302.349 575.662 302.079C575.091 301.808 574.584 301.421 574.173 300.942L562.007 286.749C561.592 286.265 561.285 285.7 561.106 285.089C560.926 284.478 560.879 283.836 560.966 283.205C561.053 282.575 561.272 281.97 561.611 281.43C561.949 280.891 562.398 280.429 562.927 280.076L585.709 264.888L565.07 240.076C563.87 238.075 563.429 235.708 563.83 233.408C564.23 231.109 565.444 229.03 567.25 227.552C569.056 226.074 571.334 225.295 573.667 225.358C576 225.421 578.233 226.321 579.958 227.893L605.041 252.406C607.015 254.21 608.522 256.465 609.433 258.979C610.343 261.493 610.63 264.191 610.269 266.84C609.907 269.49 608.908 272.012 607.358 274.19C605.807 276.368 603.751 278.138 601.366 279.346L580.865 301.1C580.444 301.546 579.936 301.902 579.373 302.145C578.81 302.388 578.203 302.513 577.59 302.514Z" fill="black"/>
<path d="M549.645 250.214C549.45 250.214 549.255 250.201 549.061 250.177C548.214 250.074 547.414 249.73 546.756 249.186C546.098 248.642 545.61 247.921 545.35 247.108L536.208 219.079C535.979 218.37 536.014 217.602 536.307 216.918C536.6 216.233 537.131 215.678 537.802 215.354L538.099 215.214C538.368 215.086 538.634 214.96 538.906 214.838C543.169 212.861 547.81 211.83 552.509 211.815C558.61 211.827 564.574 213.619 569.67 216.972C570.354 217.427 570.831 218.132 571 218.935C571.168 219.738 571.015 220.576 570.572 221.267L553.422 248.134C553.02 248.772 552.462 249.298 551.802 249.661C551.141 250.025 550.399 250.215 549.645 250.214Z" fill="black"/>
<path d="M584.101 161.603C589.523 161.603 593.918 157.208 593.918 151.786C593.918 146.365 589.523 141.97 584.101 141.97C578.679 141.97 574.284 146.365 574.284 151.786C574.284 157.208 578.679 161.603 584.101 161.603Z" fill="black"/>
<path d="M550.449 140.996C543.553 140.996 536.94 143.735 532.064 148.611C527.188 153.487 524.449 160.1 524.449 166.996V177.996H537.978L544.449 166.996L546.39 177.996H587.449L576.449 166.996C576.449 160.1 573.71 153.487 568.834 148.611C563.958 143.735 557.344 140.996 550.449 140.996Z" fill="black"/>
<path d="M589.146 145.062C590.232 141.668 592.48 138.765 595.494 136.864C598.508 134.962 602.096 134.184 605.627 134.667C611.883 135.713 616.83 140.741 619.777 146.358C622.724 151.974 624.085 158.26 626.066 164.286C628.047 170.311 630.857 176.369 635.859 180.27C640.861 184.17 648.536 185.228 653.449 181.216C652.888 185.397 651.026 189.297 648.127 192.362C645.228 195.428 641.439 197.505 637.296 198.299C633.152 199.093 628.863 198.564 625.037 196.787C621.21 195.01 618.039 192.075 615.972 188.397C613.38 183.785 612.711 178.38 611.942 173.146C611.173 167.912 610.174 162.496 607.08 158.206C603.985 153.915 598.192 151.113 593.276 153.067L589.146 145.062Z" fill="black"/>
<path d="M196.743 161.038C187.529 161.037 178.692 157.376 172.177 150.86C165.661 144.344 162.001 135.507 162 126.292C162 120.195 162.004 115.517 162.013 114.844C162.236 98.4818 165.486 82.3441 171.558 67.2351C160.404 86.5313 154.326 108.432 154.013 130.872L153.013 130.858L154.013 130.872C154.004 131.526 154 136.182 154 142.292C154.001 150.976 157.45 159.305 163.591 165.446C169.732 171.587 178.06 175.037 186.744 175.038L196.743 161.038ZM196.743 161.038C204.116 161.047 211.267 158.703 217.176 154.396M196.743 161.038L217.176 154.396M217.176 154.396C214.972 159.928 211.293 164.777 206.511 168.397C200.821 172.703 193.88 175.035 186.744 175.038L217.176 154.396Z" fill="white" stroke="black" stroke-width="2"/>
<path d="M317.407 78.9832C308.335 73.6574 298.106 70.6128 287.598 70.1109C277.676 69.6284 267.775 71.4313 258.659 75.3807C251.628 78.4269 245.209 82.6873 239.688 87.9498C243.039 82.0428 247.331 76.7033 252.407 72.1478C259.148 66.0985 267.113 61.5739 275.761 58.8823C284.409 56.1907 293.536 55.3955 302.519 56.5508C311.502 57.7061 320.13 60.7848 327.816 65.577C335.501 70.3692 342.063 76.7622 347.053 84.3202C352.044 91.8782 355.346 100.423 356.735 109.373C358.124 118.323 357.567 127.468 355.101 136.183C353.242 142.753 350.332 148.963 346.496 154.576C348.964 146.742 349.932 138.49 349.325 130.257C348.55 119.766 345.242 109.619 339.682 100.688C334.123 91.7573 326.479 84.3092 317.407 78.9832Z" fill="white" stroke="black" stroke-width="2"/>
<path d="M319.215 364.027C316.91 369.665 313.114 374.598 308.206 378.279C302.357 382.665 295.243 385.037 287.932 385.038C279.065 385.04 270.552 381.556 264.231 375.338C257.909 369.12 254.286 360.666 254.142 351.8L319.215 364.027ZM319.215 364.027C313.084 368.571 305.626 371.049 297.931 371.038C297.931 371.038 297.931 371.038 297.931 371.038L297.932 370.038C288.802 370.04 280.038 366.453 273.529 360.051L319.215 364.027ZM257.383 262.381L257.332 262.554C254.785 271.151 253.494 280.071 253.5 289.038L253.5 289.038C253.5 292.757 253.719 325.347 254.142 351.8L257.383 262.381ZM257.383 262.381C259.728 255.926 262.675 249.716 266.179 243.83C265.917 244.53 265.663 245.232 265.417 245.938L265.055 246.974L265.123 246.991C262.714 255.462 261.494 264.229 261.5 273.039L257.383 262.381Z" fill="white" stroke="black" stroke-width="2"/>
<path d="M75.502 468.296L69.9157 513.584L59.5409 513.585L59.538 468.297L75.502 468.296Z" fill="white" stroke="black" stroke-width="2"/>
<path d="M94.4447 525.968L55.914 525.97L55.9133 511.083L79.5572 511.082C83.5054 511.081 87.292 512.65 90.084 515.441C92.8759 518.233 94.4445 522.02 94.4447 525.968Z" fill="black"/>
<path d="M31.502 468.296L25.9157 513.584L15.5409 513.585L15.538 468.297L31.502 468.296Z" fill="white" stroke="black" stroke-width="2"/>
<path d="M50.4447 525.968L11.914 525.97L11.9133 511.083L35.5572 511.082C39.5054 511.081 43.292 512.65 46.084 515.441C48.8759 518.233 50.4445 522.02 50.4447 525.968Z" fill="black"/>
<path d="M25.2543 500.041L13.2793 499.411C12.6619 499.379 12.0569 499.224 11.4997 498.956C10.9424 498.688 10.4438 498.313 10.0329 497.851C9.62188 497.389 9.30668 496.85 9.10549 496.265C8.90431 495.68 8.82115 495.062 8.86083 494.444L23.1735 335.979L89.0845 353.764L95.4347 352.032L75.5764 492.317C75.4073 493.372 74.8832 494.338 74.0908 495.055C73.2984 495.772 72.2851 496.198 71.2183 496.261L58.3094 496.863C57.6639 496.898 57.018 496.8 56.4125 496.573C55.807 496.347 55.2551 495.997 54.7916 495.547C54.3282 495.096 53.9632 494.554 53.7199 493.955C53.4765 493.356 53.3601 492.713 53.3779 492.067L55.7169 407.871C55.7278 407.481 55.5925 407.102 55.3377 406.807C55.0829 406.513 54.727 406.324 54.3401 406.279C53.9532 406.234 53.5635 406.335 53.2476 406.563C52.9318 406.791 52.7127 407.129 52.6337 407.51L30.0768 496.323C29.8638 497.377 29.292 498.324 28.4588 499.003C27.6257 499.683 26.5826 500.052 25.5076 500.048C25.4237 500.048 25.3393 500.046 25.2543 500.041Z" fill="black"/>
<path d="M84.3031 181.758C84.3031 194.771 73.7545 205.319 60.7421 205.319C47.7297 205.319 37.181 194.771 37.181 181.758C37.181 168.746 47.7297 158.197 60.7421 158.197C73.7545 158.197 84.3031 168.746 84.3031 181.758Z" fill="white" stroke="black" stroke-width="2"/>
<path d="M19.8496 253.917L22.5501 312.185L23.5264 333.383C23.5653 334.306 23.8786 335.196 24.4263 335.94C24.9739 336.684 25.731 337.247 26.6007 337.559L89.9367 360.502C90.4483 360.692 90.9904 360.787 91.5362 360.782C92.1601 360.785 92.7781 360.663 93.3535 360.422C93.9289 360.18 94.4498 359.826 94.8851 359.379C95.3204 358.932 95.6611 358.402 95.887 357.82C96.113 357.239 96.2194 356.618 96.1999 355.994L93.6033 251.227C93.4328 242.632 90.2687 234.365 84.6565 227.852C79.0443 221.339 71.3357 216.989 62.8596 215.55C62.247 215.457 61.6237 215.363 61.0005 215.28C55.7446 214.628 50.4096 215.135 45.3708 216.766C40.332 218.397 35.7119 221.113 31.8354 224.721C27.8215 228.413 24.6674 232.942 22.5963 237.987C20.5251 243.032 19.5875 248.47 19.8496 253.917Z" fill="black"/>
<path d="M120.495 347.923L120.489 347.921C119.139 347.502 117.907 346.774 116.889 345.794C115.871 344.815 115.097 343.611 114.627 342.278C114.157 340.946 114.005 339.523 114.184 338.121C114.362 336.72 114.865 335.38 115.653 334.207L116.05 333.617L115.623 333.048L95.261 305.973L111.356 304.977L128.593 331.78L128.686 331.925L128.822 332.03C130.516 333.34 131.694 335.203 132.151 337.295C132.608 339.386 132.313 341.571 131.32 343.467C130.326 345.363 128.697 346.849 126.717 347.664C124.738 348.478 122.535 348.57 120.495 347.923Z" fill="#F2F2F2" stroke="black" stroke-width="2"/>
<path d="M105.091 328.481C104.522 328.25 104.004 327.908 103.568 327.476C103.132 327.044 102.786 326.529 102.55 325.962L70.1916 248.868C69.5567 247.359 69.2255 245.739 69.2168 244.101C69.2082 242.464 69.5223 240.841 70.1413 239.325C70.7603 237.809 71.672 236.429 72.8242 235.266C73.9765 234.102 75.3467 233.177 76.8566 232.543C78.3665 231.91 79.9866 231.58 81.6241 231.572C83.2616 231.565 84.8845 231.88 86.4001 232.501C87.9156 233.121 89.2941 234.033 90.4568 235.187C91.6194 236.34 92.5434 237.711 93.176 239.221L125.534 316.316C126.012 317.46 126.018 318.746 125.549 319.893C125.08 321.04 124.176 321.954 123.034 322.435L108.668 328.464C108.103 328.703 107.495 328.828 106.881 328.831C106.267 328.834 105.659 328.715 105.091 328.481Z" fill="black"/>
<path d="M73.6884 298.574C73.1358 297.106 72.2479 295.787 71.0953 294.724C69.9427 293.66 68.5574 292.88 67.05 292.447C65.5425 292.013 63.9547 291.939 62.4131 292.228C60.8716 292.517 59.419 293.163 58.1714 294.113L28.3929 274.359L28.3423 292.929L56.6281 308.841C58.1896 310.631 60.3314 311.814 62.6781 312.183C65.0248 312.552 67.4264 312.083 69.4617 310.858C71.497 309.633 73.0361 307.731 73.809 305.485C74.5818 303.238 74.5391 300.792 73.6884 298.574Z" fill="white"/>
<path d="M36.0383 302.749L11.7016 283.472C9.0688 282.588 6.68987 281.078 4.76901 279.072C2.84814 277.066 1.4427 274.624 0.673333 271.956C-0.0960371 269.287 -0.206358 266.472 0.351846 263.751C0.91005 261.031 2.12011 258.486 3.87814 256.336L25.9753 227.377C27.5108 225.501 29.6704 224.239 32.0593 223.824C34.4481 223.409 36.9066 223.867 38.9854 225.115C41.0642 226.363 42.6244 228.318 43.3808 230.621C44.1372 232.925 44.0392 235.424 43.1049 237.661L25.6211 266.261L51.315 278.448C51.9125 278.732 52.4431 279.138 52.8716 279.642C53.3002 280.146 53.617 280.734 53.8011 281.37C53.9853 282.005 54.0325 282.672 53.9398 283.326C53.8471 283.981 53.6164 284.609 53.2632 285.168L42.8914 301.582C42.5408 302.136 42.0778 302.61 41.5322 302.974C40.9867 303.337 40.371 303.582 39.7247 303.693C39.6991 303.697 39.6732 303.701 39.6474 303.705C39.0125 303.801 38.3646 303.766 37.7438 303.601C37.123 303.437 36.5426 303.147 36.0383 302.749Z" fill="black"/>
<path d="M42.1831 198.205C42.0777 197.897 42.0443 197.569 42.0854 197.246C42.1265 196.922 42.241 196.613 42.4202 196.341C42.5994 196.069 42.8385 195.841 43.1191 195.676C43.3998 195.51 43.7146 195.411 44.0395 195.386C44.7047 195.423 45.3557 195.593 45.9531 195.888C46.5506 196.183 47.0821 196.595 47.5156 197.101C48.4044 198.126 49.4392 199.015 50.5867 199.738C51.7749 200.337 53.3862 200.252 54.0636 199.11C54.6996 198.038 54.2638 196.602 53.8788 195.357C52.8989 192.188 52.3507 188.902 52.2488 185.587C52.1379 181.886 52.66 178.025 54.7086 175.139C57.3524 171.414 62.08 170 66.554 170.102C71.028 170.205 75.4295 171.586 79.8611 172.459C81.391 172.76 83.1894 172.914 84.2126 171.729C85.3007 170.468 84.9011 168.427 84.4383 166.725C83.2374 162.308 81.9633 157.74 79.173 154.173C76.1561 150.466 71.8465 148.039 67.1122 147.383C62.567 146.82 57.9532 147.343 53.6499 148.911C46.6387 151.121 40.4694 155.419 35.967 161.23C31.3257 167.409 29.3202 175.175 30.3889 182.83C31.433 189.496 34.9657 195.519 40.2747 199.684L42.1831 198.205Z" fill="black"/>
<path d="M262.394 502.786C267.07 508.369 272.98 512.789 279.656 515.697C287.178 518.976 295.428 520.228 303.585 519.327C309.036 518.725 314.318 517.176 319.2 514.769C316.377 517.161 313.262 519.203 309.922 520.841C304.192 523.65 297.931 525.209 291.553 525.414C285.175 525.619 278.827 524.465 272.929 522.028C267.032 519.592 261.72 515.929 257.346 511.283C252.972 506.637 249.636 501.114 247.56 495.08C245.484 489.046 244.715 482.639 245.304 476.286C245.893 469.932 247.827 463.776 250.977 458.227C252.815 454.989 255.042 452.001 257.602 449.326C255.355 453.267 253.682 457.524 252.648 461.97C250.999 469.064 251.021 476.443 252.713 483.526C254.404 490.61 257.718 497.203 262.394 502.786Z" fill="white" stroke="black" stroke-width="2"/>
</svg>
